Topmarks-Regular.ufo
<glyph name="exclam" format="1">
  <advance width="746.6"/>
  <unicode hex="0021"/>
  <outline>
    <contour>
      <point x="372.8" y="-3.6" type="curve" smooth="yes"/>
      <point x="448.6" y="-3.6"/>
      <point x="513.6" y="50.6"/>
      <point x="513.6" y="133.0" type="curve" smooth="yes"/>
      <point x="513.6" y="209.8"/>
      <point x="459.2" y="270.6"/>
      <point x="373.8" y="270.6" type="curve" smooth="yes"/>
      <point x="298.0" y="270.6"/>
      <point x="233.0" y="216.8"/>
      <point x="233.0" y="134.8" type="curve" smooth="yes"/>
      <point x="233.0" y="57.6"/>
      <point x="287.0" y="-3.6"/>
    </contour>
    <contour>
      <point x="316.2" y="431.0" type="line"/>
      <point x="419.4" y="431.0" type="line"/>
      <point x="487.0" y="1555.2" type="line"/>
      <point x="249.2" y="1555.2" type="line"/>
    </contour>
  </outline>
</glyph>
<glyph name="numbersign" format="1">
  <advance width="1623.6"/>
  <unicode hex="0023"/>
  <outline>
    <contour>
      <point x="241.0" y="78.4" type="line"/>
      <point x="397.4" y="78.4" type="line"/>
      <point x="485.0" y="533.0" type="line"/>
      <point x="764.0" y="533.0" type="line"/>
      <point x="678.8" y="78.4" type="line"/>
      <point x="833.8" y="78.4" type="line"/>
      <point x="922.4" y="533.0" type="line"/>
      <point x="1200.4" y="533.0" type="line"/>
      <point x="1215.6" y="667.4" type="line"/>
      <point x="946.0" y="667.4" type="line"/>
      <point x="1000.6" y="962.0" type="line"/>
      <point x="1267.8" y="962.0" type="line"/>
      <point x="1283.0" y="1094.4" type="line"/>
      <point x="1025.2" y="1094.4" type="line"/>
      <point x="1108.8" y="1533.2" type="line"/>
      <point x="952.4" y="1533.2" type="line"/>
      <point x="870.8" y="1094.4" type="line"/>
      <point x="591.8" y="1094.4" type="line"/>
      <point x="674.4" y="1533.2" type="line"/>
      <point x="518.0" y="1533.2" type="line"/>
      <point x="433.4" y="1094.4" type="line"/>
      <point x="145.0" y="1094.4" type="line"/>
      <point x="130.8" y="962.0" type="line"/>
      <point x="410.2" y="962.0" type="line"/>
      <point x="392.0" y="862.6"/>
      <point x="373.8" y="768.2"/>
      <point x="356.6" y="667.4" type="curve"/>
      <point x="73.2" y="667.4" type="line"/>
      <point x="61.4" y="533.0" type="line"/>
      <point x="331.0" y="533.0" type="line"/>
    </contour>
    <contour>
      <point x="508.6" y="667.4" type="line"/>
      <point x="566.6" y="962.0" type="line"/>
      <point x="845.6" y="962.0" type="line"/>
      <point x="791.0" y="667.4" type="line"/>
    </contour>
  </outline>
</glyph>
<glyph name="percent" format="1">
  <advance width="2589.0"/>
  <unicode hex="0025"/>
  <outline>
    <contour>
      <point x="596.0" y="727.2" type="curve" smooth="yes"/>
      <point x="654.6" y="727.2"/>
      <point x="706.8" y="738.4"/>
      <point x="754.0" y="759.6" type="curve" smooth="yes"/>
      <point x="885.4" y="819.6"/>
      <point x="977.4" y="948.0"/>
      <point x="977.4" y="1136.0" type="curve" smooth="yes"/>
      <point x="977.4" y="1377.6"/>
      <point x="845.0" y="1541.4"/>
      <point x="602.0" y="1541.4" type="curve" smooth="yes"/>
      <point x="543.4" y="1541.4"/>
      <point x="489.8" y="1531.6"/>
      <point x="442.6" y="1510.4" type="curve" smooth="yes"/>
      <point x="310.2" y="1451.4"/>
      <point x="219.2" y="1320.0"/>
      <point x="219.2" y="1131.6" type="curve" smooth="yes"/>
      <point x="219.2" y="1075.0"/>
      <point x="227.6" y="1021.8"/>
      <point x="244.8" y="972.6" type="curve" smooth="yes"/>
      <point x="292.6" y="831.4"/>
      <point x="408.0" y="727.2"/>
    </contour>
    <contour>
      <point x="1589.4" y="-35.0" type="curve" smooth="yes"/>
      <point x="1648.0" y="-35.0"/>
      <point x="1700.6" y="-24.6"/>
      <point x="1747.8" y="-3.0" type="curve" smooth="yes"/>
      <point x="1879.2" y="56.6"/>
      <point x="1971.6" y="186.4"/>
      <point x="1971.6" y="374.4" type="curve" smooth="yes"/>
      <point x="1971.6" y="616.0"/>
      <point x="1838.8" y="779.8"/>
      <point x="1595.8" y="779.8" type="curve" smooth="yes"/>
      <point x="1537.2" y="779.8"/>
      <point x="1483.6" y="769.4"/>
      <point x="1436.4" y="747.8" type="curve" smooth="yes"/>
      <point x="1304.0" y="688.2"/>
      <point x="1213.0" y="558.0"/>
      <point x="1213.0" y="369.0" type="curve" smooth="yes"/>
      <point x="1213.0" y="312.0"/>
      <point x="1221.4" y="258.8"/>
      <point x="1238.6" y="210.0" type="curve" smooth="yes"/>
      <point x="1287.8" y="68.4"/>
      <point x="1401.4" y="-35.0"/>
    </contour>
    <contour>
      <point x="600.0" y="848.2" type="curve" smooth="yes"/>
      <point x="441.6" y="848.2"/>
      <point x="373.2" y="974.6"/>
      <point x="373.2" y="1133.0" type="curve" smooth="yes"/>
      <point x="373.2" y="1290.0"/>
      <point x="442.6" y="1421.4"/>
      <point x="601.0" y="1421.4" type="curve" smooth="yes"/>
      <point x="638.4" y="1421.4"/>
      <point x="672.8" y="1414.0"/>
      <point x="700.8" y="1399.2" type="curve" smooth="yes"/>
      <point x="782.6" y="1355.4"/>
      <point x="824.8" y="1262.4"/>
      <point x="824.8" y="1137.0" type="curve" smooth="yes"/>
      <point x="824.8" y="981.0"/>
      <point x="756.0" y="848.2"/>
    </contour>
    <contour>
      <point x="1592.4" y="85.6" type="curve" smooth="yes"/>
      <point x="1554.0" y="85.6"/>
      <point x="1519.6" y="93.0"/>
      <point x="1492.0" y="108.2" type="curve" smooth="yes"/>
      <point x="1409.4" y="152.0"/>
      <point x="1367.0" y="244.0"/>
      <point x="1367.0" y="368.4" type="curve" smooth="yes"/>
      <point x="1367.0" y="525.4"/>
      <point x="1436.4" y="659.2"/>
      <point x="1594.8" y="659.2" type="curve" smooth="yes"/>
      <point x="1750.8" y="659.2"/>
      <point x="1817.2" y="532.8"/>
      <point x="1817.2" y="375.4" type="curve" smooth="yes"/>
      <point x="1817.2" y="219.4"/>
      <point x="1749.8" y="85.6"/>
    </contour>
    <contour>
      <point x="510.0" y="-11.8" type="line"/>
      <point x="674.8" y="-11.8" type="line"/>
      <point x="1642.6" y="1529.6" type="line"/>
      <point x="1477.2" y="1529.6" type="line"/>
    </contour>
  </outline>
</glyph>
<glyph name="quotesingle" format="1">
  <advance width="722.8"/>
  <unicode hex="0027"/>
  <outline>
    <contour>
      <point x="268.0" y="1290.2" type="line"/>
      <point x="407.2" y="1290.2" type="line"/>
      <point x="407.2" y="1784.2" type="line"/>
      <point x="229.6" y="1784.2" type="line"/>
    </contour>
  </outline>
</glyph>
<glyph name="asterisk" format="1">
  <advance width="1499.4"/>
  <unicode hex="002A"/>
  <outline>
    <contour>
      <point x="839.4" y="964.4" type="line"/>
      <point x="974.2" y="1042.6" type="line"/>
      <point x="759.2" y="1311.2" type="line"/>
      <point x="1040.6" y="1405.2" type="line"/>
      <point x="971.8" y="1538.6" type="line"/>
      <point x="720.8" y="1409.2" type="line"/>
      <point x="720.8" y="1728.0" type="line"/>
      <point x="568.8" y="1728.0" type="line"/>
      <point x="582.6" y="1621.2"/>
      <point x="598.8" y="1511.0"/>
      <point x="612.6" y="1403.8" type="curve"/>
      <point x="309.0" y="1535.6" type="line"/>
      <point x="286.4" y="1391.0" type="line"/>
      <point x="578.6" y="1307.8" type="line"/>
      <point x="374.0" y="1053.0" type="line"/>
      <point x="506.8" y="972.8" type="line"/>
      <point x="670.6" y="1248.8" type="line"/>
    </contour>
  </outline>
</glyph>
<glyph name="plus" format="1">
  <advance width="1438.0"/>
  <unicode hex="002B"/>
  <outline>
    <contour>
      <point x="637.6" y="164.8" type="line"/>
      <point x="797.0" y="164.8" type="line"/>
      <point x="797.0" y="647.0" type="line"/>
      <point x="1251.6" y="647.0" type="line"/>
      <point x="1251.6" y="796.0" type="line"/>
      <point x="799.0" y="796.0" type="line"/>
      <point x="799.0" y="1275.6" type="line"/>
      <point x="640.6" y="1275.6" type="line"/>
      <point x="640.6" y="796.0" type="line"/>
      <point x="186.4" y="796.0" type="line"/>
      <point x="186.4" y="647.0" type="line"/>
      <point x="637.6" y="647.0" type="line"/>
    </contour>
  </outline>
</glyph>
<glyph name="comma" format="1">
  <advance width="532.8"/>
  <unicode hex="002C"/>
  <outline>
    <contour>
      <point x="70.0" y="-286.0" type="line"/>
      <point x="222.2" y="-286.0" type="line"/>
      <point x="396.0" y="209.4" type="line"/>
      <point x="184.2" y="209.4" type="line"/>
    </contour>
  </outline>
</glyph>
<glyph name="zero" format="1">
  <advance width="1267.8"/>
  <unicode hex="0030"/>
  <outline>
    <contour>
      <point x="633.4" y="165.8" type="curve" smooth="yes"/>
      <point x="391.0" y="165.8"/>
      <point x="334.8" y="435.0"/>
      <point x="334.8" y="729.6" type="curve" smooth="yes"/>
      <point x="334.8" y="1018.8"/>
      <point x="401.8" y="1300.6"/>
      <point x="633.4" y="1300.6" type="curve" smooth="yes"/>
      <point x="874.4" y="1300.6"/>
      <point x="929.8" y="1026.0"/>
      <point x="929.8" y="729.6" type="curve" smooth="yes"/>
      <point x="929.8" y="445.2"/>
      <point x="861.2" y="165.8"/>
    </contour>
    <contour>
      <point x="630.4" y="-12.6" type="curve" smooth="yes"/>
      <point x="995.8" y="-12.6"/>
      <point x="1151.0" y="323.4"/>
      <point x="1151.0" y="729.6" type="curve" smooth="yes"/>
      <point x="1151.0" y="1151.4"/>
      <point x="1014.4" y="1479.4"/>
      <point x="633.4" y="1479.4" type="curve" smooth="yes"/>
      <point x="265.6" y="1479.4"/>
      <point x="116.8" y="1143.0"/>
      <point x="116.8" y="729.6" type="curve" smooth="yes"/>
      <point x="116.8" y="319.8"/>
      <point x="260.8" y="-12.6"/>
    </contour>
  </outline>
</glyph>
<glyph name="six" format="1">
  <advance width="1267.2"/>
  <unicode hex="0036"/>
  <outline>
    <contour>
      <point x="655.6" y="-27.2" type="curve" smooth="yes"/>
      <point x="913.0" y="-27.2"/>
      <point x="1136.8" y="155.8"/>
      <point x="1136.8" y="460.4" type="curve" smooth="yes"/>
      <point x="1136.8" y="729.8"/>
      <point x="945.2" y="940.8"/>
      <point x="676.8" y="940.8" type="curve" smooth="yes"/>
      <point x="568.8" y="940.8"/>
      <point x="410.6" y="889.6"/>
      <point x="354.0" y="798.4" type="curve"/>
      <point x="420.2" y="1090.4"/>
      <point x="617.2" y="1299.2"/>
      <point x="949.4" y="1361.8" type="curve"/>
      <point x="897.0" y="1518.8" type="line"/>
      <point x="271.8" y="1392.2"/>
      <point x="115.2" y="869.2"/>
      <point x="140.8" y="484.2" type="curve" smooth="yes"/>
      <point x="159.8" y="196.0"/>
      <point x="340.2" y="-27.2"/>
    </contour>
    <contour>
      <point x="650.0" y="139.2" type="curve" smooth="yes"/>
      <point x="458.2" y="139.2"/>
      <point x="329.0" y="279.2"/>
      <point x="329.0" y="458.2" type="curve" smooth="yes"/>
      <point x="329.0" y="652.0"/>
      <point x="471.4" y="780.4"/>
      <point x="643.2" y="780.4" type="curve" smooth="yes"/>
      <point x="828.8" y="780.4"/>
      <point x="942.2" y="645.6"/>
      <point x="942.2" y="451.4" type="curve" smooth="yes"/>
      <point x="942.2" y="256.0"/>
      <point x="816.8" y="139.2"/>
    </contour>
  </outline>
</glyph>
<glyph name="seven" format="1">
  <advance width="1267.2"/>
  <unicode hex="0037"/>
  <outline>
    <contour>
      <point x="342.6" y="0.0" type="line"/>
      <point x="565.8" y="0.0" type="line"/>
      <point x="1101.0" y="1311.8" type="line"/>
      <point x="1101.0" y="1438.8" type="line"/>
      <point x="157.0" y="1438.8" type="line"/>
      <point x="157.0" y="1272.2" type="line"/>
      <point x="868.6" y="1272.2" type="line"/>
    </contour>
  </outline>
</glyph>
<glyph name="colon" format="1">
  <advance width="704.4"/>
  <unicode hex="003A"/>
  <outline>
    <contour>
      <point x="207.4" y="-14.6" type="line"/>
      <point x="439.6" y="-14.6" type="line"/>
      <point x="439.6" y="210.2" type="line"/>
      <point x="207.4" y="210.2" type="line"/>
    </contour>
    <contour>
      <point x="207.4" y="896.6" type="line"/>
      <point x="439.6" y="896.6" type="line"/>
      <point x="439.6" y="1121.4" type="line"/>
      <point x="207.4" y="1121.4" type="line"/>
    </contour>
  </outline>
</glyph>
<glyph name="semicolon" format="1">
  <advance width="704.4"/>
  <unicode hex="003B"/>
  <outline>
    <contour>
      <point x="130.4" y="-334.0" type="line"/>
      <point x="270.6" y="-334.0" type="line"/>
      <point x="444.8" y="161.4" type="line"/>
      <point x="244.0" y="161.4" type="line"/>
    </contour>
    <contour>
      <point x="193.8" y="824.4" type="line"/>
      <point x="426.0" y="824.4" type="line"/>
      <point x="426.0" y="1049.2" type="line"/>
      <point x="215.8" y="1049.2" type="line"/>
    </contour>
  </outline>
</glyph>
<glyph name="less" format="1">
  <advance width="1901.6"/>
  <unicode hex="003C"/>
  <outline>
    <contour>
      <point x="1287.8" y="62.4" type="line"/>
      <point x="1287.8" y="214.4" type="line"/>
      <point x="504.4" y="565.6" type="line"/>
      <point x="1291.8" y="927.2" type="line"/>
      <point x="1291.8" y="1079.4" type="line"/>
      <point x="285.8" y="608.6" type="line"/>
      <point x="285.8" y="521.6" type="line"/>
    </contour>
  </outline>
</glyph>
<glyph name="question" format="1">
  <advance width="1002.4"/>
  <unicode hex="003F"/>
  <outline>
    <contour>
      <point x="333.0" y="380.4" type="curve"/>
      <point x="453.6" y="380.4" type="line"/>
      <point x="478.0" y="707.6"/>
      <point x="879.2" y="764.523232323"/>
      <point x="879.2" y="1130.6" type="curve" smooth="yes"/>
      <point x="879.2" y="1349.6"/>
      <point x="715.0" y="1477.8"/>
      <point x="456.6" y="1477.8" type="curve" smooth="yes"/>
      <point x="351.8" y="1477.8"/>
      <point x="249.6" y="1450.8"/>
      <point x="160.4" y="1410.2" type="curve"/>
      <point x="172.8" y="1235.2" type="line"/>
      <point x="247.945669085" y="1272.06662015"/>
      <point x="349.414830274" y="1295.9408576"/>
      <point x="436.420693888" y="1295.03310261" type="curve" smooth="yes"/>
      <point x="558.970889937" y="1293.77638852"/>
      <point x="666.2" y="1243.58835022"/>
      <point x="666.2" y="1114.6" type="curve" smooth="yes"/>
      <point x="666.2" y="854.611459238"/>
      <point x="333.0" y="783.2"/>
    </contour>
    <contour>
      <point x="395.2" y="0.0" type="curve" smooth="yes"/>
      <point x="463.2" y="0.0"/>
      <point x="521.2" y="48.6"/>
      <point x="521.2" y="122.2" type="curve" smooth="yes"/>
      <point x="521.2" y="191.2"/>
      <point x="473.2" y="245.8"/>
      <point x="396.6" y="245.8" type="curve" smooth="yes"/>
      <point x="328.6" y="245.8"/>
      <point x="270.2" y="197.2"/>
      <point x="270.2" y="123.6" type="curve" smooth="yes"/>
      <point x="270.2" y="54.6"/>
      <point x="318.2" y="0.0"/>
    </contour>
  </outline>
</glyph>
<glyph name="at" format="1">
  <advance width="1921.2"/>
  <unicode hex="0040"/>
  <outline>
    <contour>
      <point x="992.4" y="-109.8" type="curve" smooth="yes"/>
      <point x="1225.0" y="-109.8"/>
      <point x="1427.8" y="-36.2"/>
      <point x="1574.6" y="85.2" type="curve"/>
      <point x="1490.6" y="182.8" type="line"/>
      <point x="1361.8" y="90.8"/>
      <point x="1197.8" y="32.0"/>
      <point x="1007.8" y="32.0" type="curve" smooth="yes"/>
      <point x="628.0" y="32.0"/>
      <point x="322.4" y="274.2"/>
      <point x="322.4" y="677.8" type="curve" smooth="yes"/>
      <point x="322.4" y="1073.2"/>
      <point x="635.6" y="1332.2"/>
      <point x="996.6" y="1332.2" type="curve" smooth="yes"/>
      <point x="1328.4" y="1332.2"/>
      <point x="1611.6" y="1134.6"/>
      <point x="1611.6" y="793.6" type="curve" smooth="yes"/>
      <point x="1611.6" y="557.0"/>
      <point x="1491.6" y="363.6"/>
      <point x="1349.2" y="363.6" type="curve" smooth="yes"/>
      <point x="1292.8" y="363.6"/>
      <point x="1263.0" y="396.4"/>
      <point x="1263.0" y="454.0" type="curve" smooth="yes"/>
      <point x="1263.0" y="502.8"/>
      <point x="1317.6" y="724.6"/>
      <point x="1404.0" y="1103.8" type="curve"/>
      <point x="1242.8" y="1103.8" type="line"/>
      <point x="1216.4" y="1018.8" type="line"/>
      <point x="1165.8" y="1093.0"/>
      <point x="1082.2" y="1134.8"/>
      <point x="983.8" y="1134.8" type="curve" smooth="yes"/>
      <point x="744.6" y="1134.8"/>
      <point x="513.8" y="886.8"/>
      <point x="513.8" y="616.0" type="curve" smooth="yes"/>
      <point x="513.8" y="424.4"/>
      <point x="628.8" y="255.0"/>
      <point x="829.4" y="255.0" type="curve" smooth="yes"/>
      <point x="941.0" y="255.0"/>
      <point x="1034.4" y="311.0"/>
      <point x="1100.4" y="402.0" type="curve"/>
      <point x="1112.2" y="287.6"/>
      <point x="1202.0" y="235.4"/>
      <point x="1321.0" y="235.4" type="curve" smooth="yes"/>
      <point x="1585.6" y="235.4"/>
      <point x="1783.8" y="489.8"/>
      <point x="1783.8" y="788.6" type="curve" smooth="yes"/>
      <point x="1783.8" y="1220.2"/>
      <point x="1417.4" y="1472.4"/>
      <point x="1000.4" y="1472.4" type="curve" smooth="yes"/>
      <point x="547.4" y="1472.4"/>
      <point x="137.4" y="1180.6"/>
      <point x="137.4" y="677.0" type="curve" smooth="yes"/>
      <point x="137.4" y="196.4"/>
      <point x="525.0" y="-109.8"/>
    </contour>
    <contour>
      <point x="864.0" y="398.2" type="curve" smooth="yes"/>
      <point x="764.4" y="398.2"/>
      <point x="703.2" y="470.6"/>
      <point x="703.2" y="590.8" type="curve" smooth="yes"/>
      <point x="703.2" y="799.4"/>
      <point x="845.2" y="994.6"/>
      <point x="1005.8" y="994.6" type="curve" smooth="yes"/>
      <point x="1101.8" y="994.6"/>
      <point x="1150.4" y="932.8"/>
      <point x="1150.4" y="821.0" type="curve" smooth="yes"/>
      <point x="1150.4" y="594.8"/>
      <point x="1020.6" y="398.2"/>
    </contour>
  </outline>
</glyph>
<glyph name="B" format="1">
  <advance width="1374.6"/>
  <unicode hex="0042"/>
  <outline>
    <contour>
      <point x="180.4" y="0.0" type="line"/>
      <point x="689.0" y="0.0" type="line" smooth="yes"/>
      <point x="1062.8" y="0.0"/>
      <point x="1262.0" y="119.2"/>
      <point x="1262.0" y="409.8" type="curve" smooth="yes"/>
      <point x="1262.0" y="628.2"/>
      <point x="1162.0" y="734.0"/>
      <point x="958.4" y="771.4" type="curve"/>
      <point x="1122.0" y="823.0"/>
      <point x="1195.4" y="918.8"/>
      <point x="1195.4" y="1103.0" type="curve" smooth="yes"/>
      <point x="1195.4" y="1352.2"/>
      <point x="1014.4" y="1452.8"/>
      <point x="623.0" y="1452.8" type="curve" smooth="yes"/>
      <point x="180.4" y="1452.8" type="line"/>
    </contour>
    <contour>
      <point x="387.2" y="169.2" type="line"/>
      <point x="387.2" y="673.2" type="line"/>
      <point x="649.0" y="673.2" type="line" smooth="yes"/>
      <point x="937.2" y="673.2"/>
      <point x="1054.4" y="597.2"/>
      <point x="1054.4" y="416.8" type="curve" smooth="yes"/>
      <point x="1054.4" y="239.8"/>
      <point x="942.2" y="169.2"/>
      <point x="682.6" y="169.2" type="curve" smooth="yes"/>
    </contour>
    <contour>
      <point x="387.2" y="831.4" type="line"/>
      <point x="387.2" y="1284.0" type="line"/>
      <point x="623.0" y="1284.0" type="line" smooth="yes"/>
      <point x="884.4" y="1284.0"/>
      <point x="988.4" y="1223.8"/>
      <point x="988.4" y="1071.0" type="curve" smooth="yes"/>
      <point x="988.4" y="901.6"/>
      <point x="881.8" y="831.4"/>
      <point x="619.0" y="831.4" type="curve" smooth="yes"/>
    </contour>
  </outline>
</glyph>
<glyph name="D" format="1">
  <advance width="1567.4"/>
  <unicode hex="0044"/>
  <outline>
    <contour>
      <point x="390.0" y="168.8" type="line"/>
      <point x="390.0" y="1284.0" type="line"/>
      <point x="552.8" y="1284.0" type="line" smooth="yes"/>
      <point x="992.8" y="1284.0"/>
      <point x="1227.0" y="1137.2"/>
      <point x="1227.0" y="726.6" type="curve" smooth="yes"/>
      <point x="1227.0" y="351.8"/>
      <point x="1016.8" y="168.8"/>
      <point x="627.4" y="168.8" type="curve" smooth="yes"/>
    </contour>
    <contour>
      <point x="180.4" y="0.0" type="line"/>
      <point x="611.4" y="0.0" type="line" smooth="yes"/>
      <point x="1140.4" y="0.0"/>
      <point x="1443.4" y="233.0"/>
      <point x="1443.4" y="729.6" type="curve" smooth="yes"/>
      <point x="1443.4" y="1258.2"/>
      <point x="1110.2" y="1452.8"/>
      <point x="527.0" y="1452.8" type="curve" smooth="yes"/>
      <point x="180.4" y="1452.8" type="line"/>
    </contour>
  </outline>
</glyph>
<glyph name="F" format="1">
  <advance width="1144.2"/>
  <unicode hex="0046"/>
  <outline>
    <contour>
      <point x="180.4" y="0.0" type="line"/>
      <point x="387.2" y="0.0" type="line"/>
      <point x="387.2" y="665.8" type="line"/>
      <point x="1007.8" y="665.8" type="line"/>
      <point x="1007.8" y="831.8" type="line"/>
      <point x="387.2" y="831.8" type="line"/>
      <point x="387.2" y="1284.0" type="line"/>
      <point x="1041.4" y="1284.0" type="line"/>
      <point x="1041.4" y="1452.8" type="line"/>
      <point x="180.4" y="1452.8" type="line"/>
    </contour>
  </outline>
</glyph>
<glyph name="G" format="1">
  <advance width="1555.2"/>
  <unicode hex="0047"/>
  <outline>
    <contour>
      <point x="876.6" y="-22.0" type="curve" smooth="yes"/>
      <point x="1070.8" y="-22.0"/>
      <point x="1251.4" y="14.2"/>
      <point x="1391.2" y="79.8" type="curve"/>
      <point x="1391.2" y="763.4" type="line"/>
      <point x="846.2" y="763.4" type="line"/>
      <point x="846.2" y="602.8" type="line"/>
      <point x="1190.4" y="602.8" type="line"/>
      <point x="1190.4" y="205.6" type="line"/>
      <point x="1108.4" y="172.4"/>
      <point x="1004.8" y="158.0"/>
      <point x="890.2" y="158.0" type="curve" smooth="yes"/>
      <point x="540.8" y="158.0"/>
      <point x="340.8" y="362.8"/>
      <point x="340.8" y="708.8" type="curve" smooth="yes"/>
      <point x="340.8" y="1054.6"/>
      <point x="545.8" y="1297.8"/>
      <point x="894.4" y="1297.8" type="curve" smooth="yes"/>
      <point x="1045.2" y="1297.8"/>
      <point x="1189.0" y="1254.0"/>
      <point x="1290.6" y="1176.8" type="curve"/>
      <point x="1366.6" y="1322.6" type="line"/>
      <point x="1243.8" y="1425.0"/>
      <point x="1085.8" y="1477.8"/>
      <point x="892.8" y="1477.8" type="curve" smooth="yes"/>
      <point x="421.2" y="1477.8"/>
      <point x="124.8" y="1162.6"/>
      <point x="124.8" y="695.4" type="curve" smooth="yes"/>
      <point x="124.8" y="245.8"/>
      <point x="408.0" y="-22.0"/>
    </contour>
  </outline>
</glyph>
<glyph name="H" format="1">
  <advance width="1547.4"/>
  <unicode hex="0048"/>
  <outline>
    <contour>
      <point x="180.4" y="0.0" type="line"/>
      <point x="387.2" y="0.0" type="line"/>
      <point x="387.2" y="658.4" type="line"/>
      <point x="1164.8" y="658.4" type="line"/>
      <point x="1164.8" y="0.0" type="line"/>
      <point x="1367.0" y="0.0" type="line"/>
      <point x="1367.0" y="1452.8" type="line"/>
      <point x="1164.8" y="1452.8" type="line"/>
      <point x="1164.8" y="833.2" type="line"/>
      <point x="387.2" y="833.2" type="line"/>
      <point x="387.2" y="1452.8" type="line"/>
      <point x="180.4" y="1452.8" type="line"/>
    </contour>
  </outline>
</glyph>
<glyph name="I" format="1">
  <advance width="582.0"/>
  <unicode hex="0049"/>
  <outline>
    <contour>
      <point x="187.6" y="0.0" type="line"/>
      <point x="394.4" y="0.0" type="line"/>
      <point x="394.4" y="1452.8" type="line"/>
      <point x="187.6" y="1452.8" type="line"/>
    </contour>
  </outline>
</glyph>
<glyph name="K" format="1">
  <advance width="1287.2"/>
  <unicode hex="004B"/>
  <outline>
    <contour>
      <point x="180.4" y="0.0" type="line"/>
      <point x="387.2" y="0.0" type="line"/>
      <point x="387.2" y="707.4" type="line"/>
      <point x="1020.0" y="0.0" type="line"/>
      <point x="1283.2" y="0.0" type="line"/>
      <point x="599.4" y="767.6" type="line"/>
      <point x="1245.6" y="1452.8" type="line"/>
      <point x="994.0" y="1452.8" type="line"/>
      <point x="387.2" y="806.4" type="line"/>
      <point x="387.2" y="1452.8" type="line"/>
      <point x="180.4" y="1452.8" type="line"/>
    </contour>
  </outline>
</glyph>
<glyph name="L" format="1">
  <advance width="1093.4"/>
  <unicode hex="004C"/>
  <outline>
    <contour>
      <point x="180.4" y="0.0" type="line"/>
      <point x="1064.6" y="0.0" type="line"/>
      <point x="1064.6" y="168.8" type="line"/>
      <point x="387.2" y="168.8" type="line"/>
      <point x="387.2" y="1452.8" type="line"/>
      <point x="180.4" y="1452.8" type="line"/>
    </contour>
  </outline>
</glyph>
<glyph name="M" format="1">
  <advance width="1967.6"/>
  <unicode hex="004D"/>
  <outline>
    <contour>
      <point x="180.4" y="0.0" type="line"/>
      <point x="386.4" y="0.0" type="line"/>
      <point x="386.4" y="1198.4" type="line"/>
      <point x="470.8" y="1014.8" type="line"/>
      <point x="921.6" y="223.6" type="line"/>
      <point x="1047.2" y="223.6" type="line"/>
      <point x="1496.8" y="1002.8" type="line"/>
      <point x="1586.4" y="1181.4" type="line"/>
      <point x="1586.4" y="0.0" type="line"/>
      <point x="1787.2" y="0.0" type="line"/>
      <point x="1787.2" y="1452.8" type="line"/>
      <point x="1540.4" y="1452.8" type="line"/>
      <point x="1071.2" y="643.2" type="line"/>
      <point x="986.6" y="479.6" type="line"/>
      <point x="900.6" y="640.6" type="line"/>
      <point x="440.4" y="1452.8" type="line"/>
      <point x="180.4" y="1452.8" type="line"/>
    </contour>
  </outline>
</glyph>
<glyph name="N" format="1">
  <advance width="1620.4"/>
  <unicode hex="004E"/>
  <outline>
    <contour>
      <point x="180.4" y="0.0" type="line"/>
      <point x="376.0" y="0.0" type="line"/>
      <point x="376.0" y="1186.6" type="line"/>
      <point x="467.6" y="1047.4" type="line"/>
      <point x="1208.0" y="0.0" type="line"/>
      <point x="1440.0" y="0.0" type="line"/>
      <point x="1440.0" y="1452.8" type="line"/>
      <point x="1245.0" y="1452.8" type="line"/>
      <point x="1245.0" y="254.2" type="line"/>
      <point x="1147.4" y="405.2" type="line"/>
      <point x="410.0" y="1452.8" type="line"/>
      <point x="180.4" y="1452.8" type="line"/>
    </contour>
  </outline>
</glyph>
<glyph name="S" format="1">
  <advance width="1263.37102085"/>
  <unicode hex="0053"/>
  <outline>
    <contour>
      <point x="679.07810611" y="-22.0" type="curve" smooth="yes"/>
      <point x="1009.07810611" y="-22.0"/>
      <point x="1154.07810611" y="165.2"/>
      <point x="1156.07810611" y="393.4" type="curve" smooth="yes"/>
      <point x="1158.47810611" y="603.6"/>
      <point x="1065.07810611" y="721.4"/>
      <point x="692.27810611" y="833.8" type="curve" smooth="yes"/>
      <point x="399.07810611" y="922.2"/>
      <point x="358.67810611" y="983.4"/>
      <point x="362.27810611" y="1105.6" type="curve" smooth="yes"/>
      <point x="365.87810611" y="1229.6"/>
      <point x="455.67810611" y="1299.6"/>
      <point x="669.47810611" y="1299.6" type="curve" smooth="yes"/>
      <point x="791.87810611" y="1299.6"/>
      <point x="929.27810611" y="1260.0"/>
      <point x="1046.87810611" y="1191.2" type="curve"/>
      <point x="1106.07810611" y="1353.4" type="line"/>
      <point x="960.27810611" y="1444.0"/>
      <point x="797.27810611" y="1477.8"/>
      <point x="650.27810611" y="1477.8" type="curve" smooth="yes"/>
      <point x="323.87810611" y="1477.8"/>
      <point x="149.67810611" y="1313.8"/>
      <point x="147.27810611" y="1089.0" type="curve" smooth="yes"/>
      <point x="144.87810611" y="895.6"/>
      <point x="227.47810611" y="761.0"/>
      <point x="566.67810611" y="663.8" type="curve" smooth="yes"/>
      <point x="916.87810611" y="562.4"/>
      <point x="951.27810611" y="494.4"/>
      <point x="951.27810611" y="394.6" type="curve" smooth="yes"/>
      <point x="951.27810611" y="249.6"/>
      <point x="861.27810611" y="153.8"/>
      <point x="666.07810611" y="153.8" type="curve" smooth="yes"/>
      <point x="525.67810611" y="153.8"/>
      <point x="342.87810611" y="205.4"/>
      <point x="193.87810611" y="305.8" type="curve"/>
      <point x="153.47810611" y="122.2" type="line"/>
      <point x="289.47810611" y="34.2"/>
      <point x="498.27810611" y="-22.0"/>
    </contour>
  </outline>
</glyph>
<glyph name="U" format="1">
  <advance width="1520.2"/>
  <unicode hex="0055"/>
  <outline>
    <contour>
      <point x="772.6" y="-22.0" type="curve" smooth="yes"/>
      <point x="1137.8" y="-22.0"/>
      <point x="1353.4" y="199.8"/>
      <point x="1354.6" y="553.8" type="curve"/>
      <point x="1354.6" y="1452.8" type="line"/>
      <point x="1148.8" y="1452.8" type="line"/>
      <point x="1148.8" y="541.4" type="line" smooth="yes"/>
      <point x="1148.8" y="301.4"/>
      <point x="1008.6" y="153.8"/>
      <point x="771.0" y="153.8" type="curve" smooth="yes"/>
      <point x="516.6" y="153.8"/>
      <point x="372.4" y="291.2"/>
      <point x="372.4" y="548.4" type="curve" smooth="yes"/>
      <point x="372.4" y="1452.8" type="line"/>
      <point x="166.0" y="1452.8" type="line"/>
      <point x="166.0" y="543.4" type="line" smooth="yes"/>
      <point x="166.0" y="177.4"/>
      <point x="388.6" y="-22.0"/>
    </contour>
  </outline>
</glyph>
<glyph name="W" format="1">
  <advance width="2145.4"/>
  <unicode hex="0057"/>
  <outline>
    <contour>
      <point x="1466.4" y="0.0" type="line"/>
      <point x="1682.0" y="0.0" type="line"/>
      <point x="2116.2" y="1452.8" type="line"/>
      <point x="1908.6" y="1452.8" type="line"/>
      <point x="1628.4" y="455.0" type="line"/>
      <point x="1574.4" y="268.4" type="line"/>
      <point x="1514.4" y="451.0" type="line"/>
      <point x="1169.8" y="1452.8" type="line"/>
      <point x="989.6" y="1452.8" type="line"/>
      <point x="642.4" y="455.0" type="line"/>
      <point x="578.0" y="267.4" type="line"/>
      <point x="528.4" y="455.0" type="line"/>
      <point x="242.8" y="1452.8" type="line"/>
      <point x="29.2" y="1452.8" type="line"/>
      <point x="463.8" y="0.6" type="line"/>
      <point x="680.0" y="0.6" type="line"/>
      <point x="1074.2" y="1168.6" type="line"/>
    </contour>
  </outline>
</glyph>
<glyph name="X" format="1">
  <advance width="1339.6"/>
  <unicode hex="0058"/>
  <outline>
    <contour>
      <point x="3.8" y="0.0" type="line"/>
      <point x="235.8" y="0.0" type="line"/>
      <point x="667.6" y="598.2" type="line"/>
      <point x="1095.2" y="0.0" type="line"/>
      <point x="1324.2" y="0.0" type="line"/>
      <point x="802.4" y="732.0" type="line"/>
      <point x="1325.0" y="1452.8" type="line"/>
      <point x="1098.2" y="1452.8" type="line"/>
      <point x="686.4" y="874.4" type="line"/>
      <point x="285.2" y="1452.8" type="line"/>
      <point x="46.8" y="1452.8" type="line"/>
      <point x="552.8" y="743.8" type="line"/>
    </contour>
  </outline>
</glyph>
<glyph name="Y" format="1">
  <advance width="1270.4"/>
  <unicode hex="0059"/>
  <outline>
    <contour>
      <point x="523.0" y="0.0" type="line"/>
      <point x="733.8" y="0.0" type="line"/>
      <point x="733.8" y="583.8" type="line"/>
      <point x="1264.0" y="1452.8" type="line"/>
      <point x="1045.8" y="1452.8" type="line"/>
      <point x="631.2" y="751.4" type="line"/>
      <point x="229.0" y="1452.8" type="line"/>
      <point x="6.4" y="1452.8" type="line"/>
      <point x="523.0" y="581.2" type="line"/>
    </contour>
  </outline>
</glyph>
<glyph name="bracketleft" format="1">
  <advance width="740.0"/>
  <unicode hex="005B"/>
  <outline>
    <contour>
      <point x="213.4" y="-241.0" type="line"/>
      <point x="608.0" y="-241.0" type="line"/>
      <point x="608.0" y="-116.2" type="line"/>
      <point x="414.8" y="-116.2" type="line"/>
      <point x="414.8" y="1340.6" type="line"/>
      <point x="607.4" y="1340.6" type="line"/>
      <point x="607.4" y="1465.8" type="line"/>
      <point x="213.4" y="1465.8" type="line"/>
    </contour>
  </outline>
</glyph>
<glyph name="backslash" format="1">
  <advance width="925.6"/>
  <unicode hex="005C"/>
  <outline>
    <contour>
      <point x="683.2" y="-129.0" type="line"/>
      <point x="875.0" y="-129.0" type="line"/>
      <point x="248.0" y="1449.8" type="line"/>
      <point x="53.0" y="1449.8" type="line"/>
    </contour>
  </outline>
</glyph>
<glyph name="bracketright" format="1">
  <advance width="818.8"/>
  <unicode hex="005D"/>
  <outline>
    <contour>
      <point x="118.6" y="-248.2" type="line"/>
      <point x="512.0" y="-248.2" type="line"/>
      <point x="512.0" y="1458.6" type="line"/>
      <point x="113.6" y="1458.6" type="line"/>
      <point x="119.6" y="1333.4" type="line"/>
      <point x="310.4" y="1333.4" type="line"/>
      <point x="310.4" y="-123.4" type="line"/>
      <point x="118.6" y="-123.4" type="line"/>
    </contour>
  </outline>
</glyph>
<glyph name="underscore" format="1">
  <advance width="990.0"/>
  <unicode hex="005F"/>
  <outline>
    <contour>
      <point x="-7.0" y="-356.2" type="line"/>
      <point x="994.0" y="-356.2" type="line"/>
      <point x="994.0" y="-228.2" type="line"/>
      <point x="-7.0" y="-228.2" type="line"/>
    </contour>
  </outline>
</glyph>
<glyph name="d" format="1">
  <advance width="1262.8"/>
  <unicode hex="0064"/>
  <outline>
    <contour>
      <point x="570.2" y="-22.0" type="curve" smooth="yes"/>
      <point x="727.6" y="-22.0"/>
      <point x="860.6" y="49.2"/>
      <point x="917.8" y="164.2" type="curve"/>
      <point x="924.2" y="107.0"/>
      <point x="957.0" y="34.8"/>
      <point x="993.4" y="-13.4" type="curve"/>
      <point x="1183.4" y="17.6" type="line"/>
      <point x="1137.6" y="84.0"/>
      <point x="1100.2" y="193.6"/>
      <point x="1100.2" y="389.6" type="curve" smooth="yes"/>
      <point x="1100.2" y="1533.2" type="line"/>
      <point x="903.6" y="1516.0" type="line"/>
      <point x="903.6" y="921.8" type="line"/>
      <point x="809.2" y="999.4"/>
      <point x="705.8" y="1035.2"/>
      <point x="585.8" y="1035.2" type="curve" smooth="yes"/>
      <point x="274.0" y="1035.2"/>
      <point x="92.4" y="808.0"/>
      <point x="92.4" y="495.0" type="curve" smooth="yes"/>
      <point x="92.4" y="184.4"/>
      <point x="283.6" y="-22.0"/>
    </contour>
    <contour>
      <point x="589.4" y="139.2" type="curve" smooth="yes"/>
      <point x="414.2" y="139.2"/>
      <point x="294.0" y="284.8"/>
      <point x="294.0" y="501.0" type="curve" smooth="yes"/>
      <point x="294.0" y="714.8"/>
      <point x="401.0" y="872.2"/>
      <point x="607.4" y="872.2" type="curve" smooth="yes"/>
      <point x="720.4" y="872.2"/>
      <point x="840.0" y="817.6"/>
      <point x="904.2" y="732.0" type="curve"/>
      <point x="904.2" y="527.6" type="line" smooth="yes"/>
      <point x="904.2" y="302.8"/>
      <point x="802.0" y="139.2"/>
    </contour>
  </outline>
</glyph>
<glyph name="h" format="1">
  <advance width="1259.6"/>
  <unicode hex="0068"/>
  <outline>
    <contour>
      <point x="1169.6" y="-26.6" type="curve"/>
      <point x="1189.2" y="133.0" type="line"/>
      <point x="1065.6" y="111.4"/>
      <point x="1066.2" y="178.2"/>
      <point x="1066.8" y="319.6" type="curve" smooth="yes"/>
      <point x="1068.0" y="567.8" type="line" smooth="yes"/>
      <point x="1069.8" y="877.4"/>
      <point x="935.2" y="1035.2"/>
      <point x="699.2" y="1035.2" type="curve" smooth="yes"/>
      <point x="567.6" y="1035.2"/>
      <point x="432.4" y="978.8"/>
      <point x="357.2" y="886.6" type="curve"/>
      <point x="357.2" y="1534.0" type="line"/>
      <point x="159.2" y="1509.2" type="line"/>
      <point x="159.2" y="0.0" type="line"/>
      <point x="357.2" y="0.0" type="line"/>
      <point x="357.2" y="546.4" type="line" smooth="yes"/>
      <point x="357.2" y="751.4"/>
      <point x="496.2" y="865.8"/>
      <point x="659.0" y="865.8" type="curve" smooth="yes"/>
      <point x="808.2" y="865.8"/>
      <point x="872.2" y="763.2"/>
      <point x="872.2" y="556.8" type="curve"/>
      <point x="871.0" y="260.4" type="line" smooth="yes"/>
      <point x="869.8" y="39.2"/>
      <point x="932.8" y="-66.6"/>
    </contour>
  </outline>
</glyph>
<glyph name="i" format="1">
  <advance width="655.8"/>
  <unicode hex="0069"/>
  <outline>
    <contour>
      <point x="661.8" y="30.8" type="curve"/>
      <point x="635.6" y="175.8" type="line"/>
      <point x="497.6" y="126.8"/>
      <point x="363.0" y="109.6"/>
      <point x="363.0" y="295.8" type="curve" smooth="yes"/>
      <point x="363.0" y="1014.0" type="line"/>
      <point x="167.0" y="1014.0" type="line"/>
      <point x="167.0" y="268.0" type="line" smooth="yes"/>
      <point x="167.0" y="-20.2"/>
      <point x="430.6" y="-67.4"/>
    </contour>
    <contour>
      <point x="267.8" y="1217.4" type="curve" smooth="yes"/>
      <point x="339.8" y="1217.4"/>
      <point x="400.2" y="1262.4"/>
      <point x="400.2" y="1338.4" type="curve" smooth="yes"/>
      <point x="400.2" y="1414.4"/>
      <point x="340.4" y="1460.8"/>
      <point x="269.2" y="1460.8" type="curve" smooth="yes"/>
      <point x="196.8" y="1460.8"/>
      <point x="136.8" y="1415.8"/>
      <point x="136.8" y="1339.4" type="curve" smooth="yes"/>
      <point x="136.8" y="1263.0"/>
      <point x="196.2" y="1217.4"/>
    </contour>
  </outline>
</glyph>
<glyph name="l" format="1">
  <advance width="709.2"/>
  <unicode hex="006C"/>
  <outline>
    <contour>
      <point x="709.0" y="178.4" type="line"/>
      <point x="651.8" y="156.2"/>
      <point x="582.4" y="141.2"/>
      <point x="530.2" y="141.2" type="curve" smooth="yes"/>
      <point x="431.2" y="141.2"/>
      <point x="362.4" y="191.8"/>
      <point x="362.4" y="316.4" type="curve" smooth="yes"/>
      <point x="362.4" y="1537.6" type="line"/>
      <point x="166.4" y="1508.0" type="line"/>
      <point x="166.4" y="300.4" type="line" smooth="yes"/>
      <point x="166.4" y="83.0"/>
      <point x="307.4" y="-15.2"/>
      <point x="493.6" y="-15.2" type="curve" smooth="yes"/>
      <point x="568.8" y="-15.2"/>
      <point x="651.2" y="1.6"/>
      <point x="734.0" y="32.2" type="curve"/>
    </contour>
  </outline>
</glyph>
<glyph name="o" format="1">
  <advance width="1251.2"/>
  <unicode hex="006F"/>
  <outline>
    <contour>
      <point x="629.2" y="139.2" type="curve" smooth="yes"/>
      <point x="431.6" y="139.2"/>
      <point x="299.6" y="285.0"/>
      <point x="299.6" y="503.8" type="curve" smooth="yes"/>
      <point x="299.6" y="724.4"/>
      <point x="431.2" y="872.2"/>
      <point x="627.8" y="872.2" type="curve" smooth="yes"/>
      <point x="822.4" y="872.2"/>
      <point x="951.6" y="725.0"/>
      <point x="951.6" y="505.0" type="curve" smooth="yes"/>
      <point x="951.6" y="285.6"/>
      <point x="822.8" y="139.2"/>
    </contour>
    <contour>
      <point x="628.4" y="-22.0" type="curve" smooth="yes"/>
      <point x="943.6" y="-22.0"/>
      <point x="1152.8" y="189.6"/>
      <point x="1152.8" y="506.6" type="curve" smooth="yes"/>
      <point x="1152.8" y="824.4"/>
      <point x="942.8" y="1035.2"/>
      <point x="627.4" y="1035.2" type="curve" smooth="yes"/>
      <point x="310.0" y="1035.2"/>
      <point x="98.4" y="823.0"/>
      <point x="98.4" y="505.0" type="curve" smooth="yes"/>
      <point x="98.4" y="188.6"/>
      <point x="310.4" y="-22.0"/>
    </contour>
  </outline>
</glyph>
<glyph name="p" format="1">
  <advance width="1284.6"/>
  <unicode hex="0070"/>
  <outline>
    <contour>
      <point x="173.0" y="-472.6" type="line"/>
      <point x="371.0" y="-461.8" type="line"/>
      <point x="371.8" y="83.8" type="line"/>
      <point x="448.2" y="18.6"/>
      <point x="581.8" y="-22.0"/>
      <point x="706.4" y="-22.0" type="curve" smooth="yes"/>
      <point x="1002.4" y="-22.0"/>
      <point x="1191.0" y="188.4"/>
      <point x="1191.0" y="519.8" type="curve" smooth="yes"/>
      <point x="1191.0" y="841.2"/>
      <point x="1006.6" y="1035.2"/>
      <point x="722.4" y="1035.2" type="curve" smooth="yes"/>
      <point x="574.6" y="1035.2"/>
      <point x="422.8" y="963.0"/>
      <point x="351.8" y="833.6" type="curve"/>
      <point x="342.2" y="909.0"/>
      <point x="295.0" y="973.2"/>
      <point x="245.4" y="1013.2" type="curve"/>
      <point x="66.0" y="931.2" type="line"/>
      <point x="112.2" y="877.8"/>
      <point x="173.0" y="812.4"/>
      <point x="173.0" y="674.8" type="curve" smooth="yes"/>
    </contour>
    <contour>
      <point x="678.4" y="139.2" type="curve" smooth="yes"/>
      <point x="552.4" y="139.2"/>
      <point x="429.0" y="190.4"/>
      <point x="370.4" y="273.6" type="curve"/>
      <point x="370.4" y="427.2" type="line" smooth="yes"/>
      <point x="370.4" y="699.0"/>
      <point x="505.4" y="872.2"/>
      <point x="706.6" y="872.2" type="curve" smooth="yes"/>
      <point x="885.0" y="872.2"/>
      <point x="989.4" y="736.4"/>
      <point x="989.4" y="513.8" type="curve" smooth="yes"/>
      <point x="989.4" y="283.2"/>
      <point x="869.6" y="139.2"/>
    </contour>
  </outline>
</glyph>
<glyph name="q" format="1">
  <advance width="1307.0"/>
  <unicode hex="0071"/>
  <outline>
    <contour>
      <point x="1100.6" y="-563.0" type="curve" smooth="yes"/>
      <point x="1446.2" y="-381.4" type="line"/>
      <point x="1365.8" y="-232.6" type="line"/>
      <point x="1108.2" y="-366.6" type="line"/>
      <point x="1108.2" y="731.8" type="line" smooth="yes"/>
      <point x="1108.2" y="793.6"/>
      <point x="1116.0" y="976.0"/>
      <point x="1119.0" y="996.4" type="curve"/>
      <point x="940.0" y="1003.6" type="line"/>
      <point x="925.8" y="894.0" type="line"/>
      <point x="891.6" y="952.2"/>
      <point x="800.2" y="1035.2"/>
      <point x="593.4" y="1035.2" type="curve" smooth="yes"/>
      <point x="287.8" y="1035.2"/>
      <point x="94.4" y="807.0"/>
      <point x="94.4" y="497.6" type="curve" smooth="yes"/>
      <point x="94.4" y="190.2"/>
      <point x="282.2" y="-22.0"/>
      <point x="576.2" y="-22.0" type="curve" smooth="yes"/>
      <point x="713.0" y="-22.0"/>
      <point x="832.2" y="27.4"/>
      <point x="910.2" y="122.8" type="curve"/>
      <point x="910.2" y="-442.0" type="line" smooth="yes"/>
      <point x="910.2" y="-543.4"/>
      <point x="1002.0" y="-615.0"/>
    </contour>
    <contour>
      <point x="596.8" y="139.6" type="curve" smooth="yes"/>
      <point x="396.2" y="139.6"/>
      <point x="296.0" y="290.0"/>
      <point x="296.0" y="500.6" type="curve" smooth="yes"/>
      <point x="296.0" y="715.6"/>
      <point x="403.6" y="872.2"/>
      <point x="611.0" y="872.2" type="curve" smooth="yes"/>
      <point x="785.6" y="872.2"/>
      <point x="893.0" y="765.8"/>
      <point x="910.2" y="610.6" type="curve" smooth="yes"/>
      <point x="910.2" y="393.6" type="line"/>
      <point x="879.6" y="238.0"/>
      <point x="747.6" y="139.6"/>
    </contour>
  </outline>
</glyph>
<glyph name="u" format="1">
  <advance width="1244.2"/>
  <unicode hex="0075"/>
  <outline>
    <contour>
      <point x="529.2" y="-22.0" type="curve" smooth="yes"/>
      <point x="690.0" y="-22.0"/>
      <point x="812.8" y="42.8"/>
      <point x="882.6" y="168.0" type="curve"/>
      <point x="899.0" y="57.0"/>
      <point x="1004.0" y="-21.4"/>
      <point x="1163.0" y="-3.4" type="curve"/>
      <point x="1186.6" y="157.4" type="line"/>
      <point x="1099.8" y="145.4"/>
      <point x="1048.8" y="176.4"/>
      <point x="1048.8" y="310.4" type="curve" smooth="yes"/>
      <point x="1048.8" y="1014.0" type="line"/>
      <point x="851.2" y="1014.0" type="line"/>
      <point x="851.2" y="436.2" type="line" smooth="yes"/>
      <point x="851.2" y="245.8"/>
      <point x="727.2" y="137.6"/>
      <point x="562.2" y="137.6" type="curve" smooth="yes"/>
      <point x="441.6" y="137.6"/>
      <point x="344.6" y="203.4"/>
      <point x="348.8" y="371.4" type="curve" smooth="yes"/>
      <point x="354.4" y="587.8" type="line" smooth="yes"/>
      <point x="363.4" y="918.2"/>
      <point x="304.2" y="1014.0"/>
      <point x="304.2" y="1014.0" type="curve"/>
      <point x="105.6" y="987.6" type="line"/>
      <point x="105.6" y="987.6"/>
      <point x="164.8" y="878.2"/>
      <point x="155.8" y="574.8" type="curve" smooth="yes"/>
      <point x="150.6" y="360.6" type="line" smooth="yes"/>
      <point x="143.0" y="99.6"/>
      <point x="318.4" y="-22.0"/>
    </contour>
  </outline>
</glyph>
<glyph name="v" format="1">
  <advance width="1080.8"/>
  <unicode hex="0076"/>
  <outline>
    <contour>
      <point x="451.8" y="0.0" type="line"/>
      <point x="633.4" y="0.0" type="line"/>
      <point x="1060.8" y="1014.0" type="line"/>
      <point x="855.0" y="1014.0" type="line"/>
      <point x="601.8" y="395.2" type="line"/>
      <point x="589.8" y="367.8"/>
      <point x="577.2" y="328.0"/>
      <point x="546.2" y="227.8" type="curve"/>
      <point x="530.6" y="281.0"/>
      <point x="508.8" y="349.2"/>
      <point x="489.0" y="395.2" type="curve" smooth="yes"/>
      <point x="230.8" y="1014.0" type="line"/>
      <point x="20.0" y="1014.0" type="line"/>
    </contour>
  </outline>
</glyph>
<glyph name="w" format="1">
  <advance width="1680.0"/>
  <unicode hex="0077"/>
  <outline>
    <contour>
      <point x="399.4" y="0.0" type="line"/>
      <point x="577.8" y="0.0" type="line"/>
      <point x="846.6" y="731.4" type="line"/>
      <point x="1108.0" y="0.0" type="line"/>
      <point x="1285.2" y="0.0" type="line"/>
      <point x="1658.0" y="1014.0" type="line"/>
      <point x="1457.4" y="1014.0" type="line"/>
      <point x="1241.0" y="365.8" type="line"/>
      <point x="1229.0" y="335.4"/>
      <point x="1218.4" y="301.0"/>
      <point x="1199.0" y="243.4" type="curve"/>
      <point x="1186.6" y="282.2"/>
      <point x="1171.2" y="330.0"/>
      <point x="1158.8" y="365.2" type="curve" smooth="yes"/>
      <point x="948.4" y="973.6" type="line"/>
      <point x="928.676839516" y="1026.8525333"/>
      <point x="768.199254604" y="1031.60652428"/>
      <point x="747.6" y="971.6" type="curve"/>
      <point x="533.0" y="359.2" type="line"/>
      <point x="521.0" y="331.8"/>
      <point x="510.4" y="298.0"/>
      <point x="492.4" y="241.6" type="curve"/>
      <point x="480.4" y="281.0"/>
      <point x="465.0" y="328.2"/>
      <point x="452.6" y="364.0" type="curve" smooth="yes"/>
      <point x="229.2" y="1014.0" type="line"/>
      <point x="22.0" y="1014.0" type="line"/>
    </contour>
  </outline>
</glyph>
<glyph name="x" format="1">
  <advance width="1110.6"/>
  <unicode hex="0078"/>
  <outline>
    <contour>
      <point x="36.8" y="0.0" type="line"/>
      <point x="257.2" y="0.0" type="line"/>
      <point x="549.2" y="382.8" type="line"/>
      <point x="832.0" y="0.0" type="line"/>
      <point x="1073.8" y="0.0" type="line"/>
      <point x="683.6" y="512.4" type="line"/>
      <point x="1059.2" y="1014.0" type="line"/>
      <point x="840.2" y="1014.0" type="line"/>
      <point x="574.8" y="648.0" type="line"/>
      <point x="304.8" y="1014.0" type="line"/>
      <point x="66.2" y="1014.0" type="line"/>
      <point x="440.0" y="516.0" type="line"/>
    </contour>
  </outline>
</glyph>
<glyph name="exclamdown" format="1">
  <advance width="961.0"/>
  <unicode hex="00A1"/>
  <outline>
    <contour>
      <point x="335.6" y="-274.0" type="line"/>
      <point x="525.8" y="-274.0" type="line"/>
      <point x="495.8" y="881.8" type="line"/>
      <point x="366.2" y="881.8" type="line"/>
    </contour>
    <contour>
      <point x="395.0" y="1065.0" type="curve" smooth="yes"/>
      <point x="438.8" y="1065.0"/>
      <point x="563.6" y="1096.2"/>
      <point x="563.6" y="1132.2" type="curve" smooth="yes"/>
      <point x="563.6" y="1174.2"/>
      <point x="529.4" y="1295.2"/>
      <point x="495.2" y="1295.2" type="curve" smooth="yes"/>
      <point x="451.4" y="1295.2"/>
      <point x="326.6" y="1264.0"/>
      <point x="326.6" y="1228.0" type="curve" smooth="yes"/>
      <point x="326.6" y="1186.0"/>
      <point x="360.8" y="1065.0"/>
    </contour>
  </outline>
</glyph>
<glyph name="sterling" format="1">
  <advance width="1551.0"/>
  <unicode hex="00A3"/>
  <outline>
    <contour>
      <point x="149.8" y="0.0" type="line"/>
      <point x="1183.0" y="0.0" type="line"/>
      <point x="1183.0" y="151.0" type="line"/>
      <point x="422.4" y="151.0" type="line"/>
      <point x="439.6" y="164.8"/>
      <point x="454.8" y="182.6"/>
      <point x="466.6" y="207.6" type="curve" smooth="yes"/>
      <point x="525.2" y="326.6"/>
      <point x="527.2" y="508.8"/>
      <point x="527.2" y="685.4" type="curve" smooth="yes"/>
      <point x="527.2" y="738.0" type="line"/>
      <point x="880.4" y="738.0" type="line"/>
      <point x="880.4" y="890.0" type="line"/>
      <point x="525.2" y="890.0" type="line"/>
      <point x="522.2" y="1013.0" type="line"/>
      <point x="522.2" y="1236.4"/>
      <point x="591.6" y="1398.2"/>
      <point x="814.0" y="1398.2" type="curve" smooth="yes"/>
      <point x="933.0" y="1398.2"/>
      <point x="1032.0" y="1369.2"/>
      <point x="1106.8" y="1323.4" type="curve"/>
      <point x="1162.8" y="1451.8" type="line"/>
      <point x="1080.2" y="1516.8"/>
      <point x="964.0" y="1548.8"/>
      <point x="810.6" y="1548.8" type="curve" smooth="yes"/>
      <point x="432.8" y="1548.8"/>
      <point x="341.2" y="1295.0"/>
      <point x="341.2" y="920.6" type="curve" smooth="yes"/>
      <point x="341.2" y="910.2"/>
      <point x="342.2" y="900.4"/>
      <point x="343.6" y="890.0" type="curve"/>
      <point x="148.4" y="890.0" type="line"/>
      <point x="148.4" y="738.0" type="line"/>
      <point x="344.2" y="738.0" type="line"/>
      <point x="344.2" y="470.8" type="line" smooth="yes"/>
      <point x="344.2" y="290.8"/>
      <point x="259.6" y="213.0"/>
      <point x="148.4" y="148.0" type="curve"/>
    </contour>
  </outline>
</glyph>
<glyph name="brokenbar" format="1">
  <advance width="652.0"/>
  <unicode hex="00A6"/>
  <outline>
    <contour>
      <point x="219.2" y="-640.6" type="line"/>
      <point x="387.4" y="-640.6" type="line"/>
      <point x="387.4" y="305.0" type="line"/>
      <point x="219.2" y="305.0" type="line"/>
    </contour>
    <contour>
      <point x="219.2" y="609.0" type="line"/>
      <point x="387.4" y="609.0" type="line"/>
      <point x="387.4" y="1537.4" type="line"/>
      <point x="219.2" y="1537.4" type="line"/>
    </contour>
  </outline>
</glyph>
<glyph name="dieresis" format="1">
  <advance width="969.0"/>
  <unicode hex="00A8"/>
  <outline>
    <contour>
      <point x="192.6" y="1184.6" type="line"/>
      <point x="396.2" y="1184.6" type="line"/>
      <point x="396.2" y="1386.8" type="line"/>
      <point x="192.6" y="1386.8" type="line"/>
    </contour>
    <contour>
      <point x="569.8" y="1184.6" type="line"/>
      <point x="773.4" y="1184.6" type="line"/>
      <point x="773.4" y="1386.8" type="line"/>
      <point x="569.8" y="1386.8" type="line"/>
    </contour>
  </outline>
</glyph>
<glyph name="copyright" format="1">
  <advance width="1970.6"/>
  <unicode hex="00A9"/>
  <outline>
    <contour>
      <point x="1014.8" y="225.4" type="curve" smooth="yes"/>
      <point x="1143.2" y="225.4"/>
      <point x="1253.4" y="257.4"/>
      <point x="1345.4" y="321.8" type="curve"/>
      <point x="1303.6" y="451.2" type="line"/>
      <point x="1239.2" y="398.6"/>
      <point x="1157.4" y="365.6"/>
      <point x="1049.2" y="365.6" type="curve" smooth="yes"/>
      <point x="985.8" y="365.6"/>
      <point x="930.2" y="376.4"/>
      <point x="882.0" y="395.6" type="curve" smooth="yes"/>
      <point x="752.6" y="448.8"/>
      <point x="665.0" y="564.8"/>
      <point x="665.0" y="743.4" type="curve" smooth="yes"/>
      <point x="665.0" y="794.6"/>
      <point x="673.8" y="842.8"/>
      <point x="690.0" y="887.6" type="curve" smooth="yes"/>
      <point x="737.2" y="1017.0"/>
      <point x="846.0" y="1114.8"/>
      <point x="1019.2" y="1114.8" type="curve" smooth="yes"/>
      <point x="1133.8" y="1114.8"/>
      <point x="1229.8" y="1080.4"/>
      <point x="1308.0" y="1013.0" type="curve"/>
      <point x="1341.0" y="1141.4" type="line"/>
      <point x="1254.4" y="1215.2"/>
      <point x="1149.6" y="1251.2"/>
      <point x="1026.6" y="1251.2" type="curve" smooth="yes"/>
      <point x="947.4" y="1251.2"/>
      <point x="876.0" y="1238.4"/>
      <point x="811.6" y="1212.8" type="curve" smooth="yes"/>
      <point x="633.0" y="1142.4"/>
      <point x="501.2" y="985.0"/>
      <point x="501.2" y="739.0" type="curve" smooth="yes"/>
      <point x="501.2" y="667.6"/>
      <point x="514.4" y="600.8"/>
      <point x="540.0" y="538.8" type="curve" smooth="yes"/>
      <point x="611.4" y="363.2"/>
      <point x="771.8" y="225.4"/>
    </contour>
    <contour>
      <point x="986.8" y="-75.2" type="curve" smooth="yes"/>
      <point x="1253.0" y="-75.2"/>
      <point x="1451.2" y="30.6"/>
      <point x="1592.4" y="164.4" type="curve" smooth="yes"/>
      <point x="1729.2" y="293.8"/>
      <point x="1845.8" y="477.8"/>
      <point x="1845.8" y="734.6" type="curve" smooth="yes"/>
      <point x="1845.8" y="808.4"/>
      <point x="1835.0" y="879.2"/>
      <point x="1814.8" y="947.6" type="curve" smooth="yes"/>
      <point x="1771.0" y="1092.2"/>
      <point x="1691.8" y="1210.8"/>
      <point x="1592.4" y="1304.8" type="curve" smooth="yes"/>
      <point x="1450.2" y="1438.6"/>
      <point x="1250.4" y="1545.8"/>
      <point x="980.8" y="1545.8" type="curve" smooth="yes"/>
      <point x="714.6" y="1545.8"/>
      <point x="516.8" y="1440.6"/>
      <point x="374.2" y="1306.8" type="curve" smooth="yes"/>
      <point x="237.4" y="1177.4"/>
      <point x="119.4" y="993.4"/>
      <point x="119.4" y="735.6" type="curve" smooth="yes"/>
      <point x="119.4" y="661.8"/>
      <point x="130.2" y="590.4"/>
      <point x="150.4" y="522.0" type="curve" smooth="yes"/>
      <point x="194.2" y="377.8"/>
      <point x="272.4" y="258.4"/>
      <point x="372.8" y="164.4" type="curve" smooth="yes"/>
      <point x="515.4" y="30.6"/>
      <point x="717.2" y="-75.2"/>
    </contour>
    <contour>
      <point x="986.2" y="50.2" type="curve" smooth="yes"/>
      <point x="763.8" y="50.2"/>
      <point x="585.2" y="134.4"/>
      <point x="465.2" y="248.0" type="curve" smooth="yes"/>
      <point x="348.6" y="357.8"/>
      <point x="255.2" y="522.6"/>
      <point x="255.2" y="737.0" type="curve" smooth="yes"/>
      <point x="255.2" y="949.6"/>
      <point x="348.6" y="1114.4"/>
      <point x="465.2" y="1223.6" type="curve" smooth="yes"/>
      <point x="584.2" y="1334.8"/>
      <point x="761.0" y="1420.4"/>
      <point x="981.8" y="1420.4" type="curve" smooth="yes"/>
      <point x="1203.2" y="1420.4"/>
      <point x="1381.8" y="1334.2"/>
      <point x="1500.8" y="1221.6" type="curve" smooth="yes"/>
      <point x="1617.0" y="1111.8"/>
      <point x="1710.0" y="947.6"/>
      <point x="1710.0" y="734.0" type="curve" smooth="yes"/>
      <point x="1710.0" y="521.0"/>
      <point x="1616.6" y="357.2"/>
      <point x="1501.4" y="248.0" type="curve" smooth="yes"/>
      <point x="1382.8" y="135.4"/>
      <point x="1207.6" y="50.2"/>
    </contour>
  </outline>
</glyph>
<glyph name="guillemotleft" format="1">
  <advance width="1507.6"/>
  <unicode hex="00AB"/>
  <outline>
    <contour>
      <point x="608.6" y="223.0" type="line"/>
      <point x="776.4" y="223.0" type="line"/>
      <point x="502.8" y="618.6" type="line"/>
      <point x="786.2" y="1018.0" type="line"/>
      <point x="615.0" y="1018.0" type="line"/>
      <point x="320.8" y="618.6" type="line"/>
    </contour>
    <contour>
      <point x="1004.2" y="223.0" type="line"/>
      <point x="1172.4" y="223.0" type="line"/>
      <point x="898.4" y="618.6" type="line"/>
      <point x="1179.8" y="1018.0" type="line"/>
      <point x="1009.6" y="1018.0" type="line"/>
      <point x="716.8" y="618.6" type="line"/>
    </contour>
  </outline>
</glyph>
<glyph name="registered" format="1">
  <advance width="1970.6"/>
  <unicode hex="00AE"/>
  <outline>
    <contour>
      <point x="648.2" y="252.2" type="line"/>
      <point x="806.6" y="252.2" type="line"/>
      <point x="806.6" y="670.4" type="line"/>
      <point x="952.8" y="670.4" type="line"/>
      <point x="1018.2" y="628.6"/>
      <point x="1065.0" y="555.8"/>
      <point x="1109.8" y="478.6" type="curve" smooth="yes"/>
      <point x="1241.6" y="252.2" type="line"/>
      <point x="1421.2" y="252.2" type="line"/>
      <point x="1386.2" y="310.2"/>
      <point x="1355.2" y="361.0"/>
      <point x="1326.2" y="407.2" type="curve" smooth="yes"/>
      <point x="1261.2" y="511.0"/>
      <point x="1199.8" y="611.4"/>
      <point x="1117.6" y="688.6" type="curve"/>
      <point x="1273.6" y="708.8"/>
      <point x="1401.0" y="789.0"/>
      <point x="1401.0" y="960.2" type="curve" smooth="yes"/>
      <point x="1401.0" y="1048.8"/>
      <point x="1363.6" y="1117.2"/>
      <point x="1287.8" y="1164.4" type="curve" smooth="yes"/>
      <point x="1212.0" y="1211.6"/>
      <point x="1096.4" y="1234.8"/>
      <point x="940.0" y="1234.8" type="curve" smooth="yes"/>
      <point x="648.2" y="1234.8" type="line"/>
    </contour>
    <contour>
      <point x="986.8" y="-74.4" type="curve" smooth="yes"/>
      <point x="1253.0" y="-74.4"/>
      <point x="1451.2" y="31.4"/>
      <point x="1592.4" y="165.2" type="curve" smooth="yes"/>
      <point x="1729.2" y="294.6"/>
      <point x="1845.8" y="478.6"/>
      <point x="1845.8" y="735.4" type="curve" smooth="yes"/>
      <point x="1845.8" y="809.2"/>
      <point x="1835.0" y="880.0"/>
      <point x="1814.8" y="948.4" type="curve" smooth="yes"/>
      <point x="1771.0" y="1093.0"/>
      <point x="1691.8" y="1211.6"/>
      <point x="1592.4" y="1305.6" type="curve" smooth="yes"/>
      <point x="1450.2" y="1439.4"/>
      <point x="1250.4" y="1546.6"/>
      <point x="980.8" y="1546.6" type="curve" smooth="yes"/>
      <point x="714.6" y="1546.6"/>
      <point x="516.8" y="1441.4"/>
      <point x="374.2" y="1307.6" type="curve" smooth="yes"/>
      <point x="237.4" y="1178.2"/>
      <point x="119.4" y="994.2"/>
      <point x="119.4" y="736.4" type="curve" smooth="yes"/>
      <point x="119.4" y="662.6"/>
      <point x="130.2" y="591.2"/>
      <point x="150.4" y="522.8" type="curve" smooth="yes"/>
      <point x="194.2" y="378.6"/>
      <point x="272.4" y="259.2"/>
      <point x="372.8" y="165.2" type="curve" smooth="yes"/>
      <point x="515.4" y="31.4"/>
      <point x="717.2" y="-74.4"/>
    </contour>
    <contour>
      <point x="986.2" y="51.0" type="curve" smooth="yes"/>
      <point x="763.8" y="51.0"/>
      <point x="585.2" y="135.2"/>
      <point x="465.2" y="248.8" type="curve" smooth="yes"/>
      <point x="348.6" y="358.6"/>
      <point x="255.2" y="523.4"/>
      <point x="255.2" y="737.8" type="curve" smooth="yes"/>
      <point x="255.2" y="950.4"/>
      <point x="348.6" y="1114.2"/>
      <point x="465.2" y="1224.4" type="curve" smooth="yes"/>
      <point x="584.2" y="1336.6"/>
      <point x="761.0" y="1421.2"/>
      <point x="981.8" y="1421.2" type="curve" smooth="yes"/>
      <point x="1203.2" y="1421.2"/>
      <point x="1381.8" y="1335.0"/>
      <point x="1500.8" y="1222.4" type="curve" smooth="yes"/>
      <point x="1617.0" y="1112.6"/>
      <point x="1710.0" y="948.4"/>
      <point x="1710.0" y="734.8" type="curve" smooth="yes"/>
      <point x="1710.0" y="515.4"/>
      <point x="1619.0" y="358.0"/>
      <point x="1502.4" y="248.8" type="curve" smooth="yes"/>
      <point x="1382.8" y="136.2"/>
      <point x="1214.0" y="51.0"/>
    </contour>
    <contour>
      <point x="804.2" y="797.4" type="line"/>
      <point x="803.2" y="1106.4" type="line"/>
      <point x="936.0" y="1106.4" type="line" smooth="yes"/>
      <point x="1099.8" y="1106.4"/>
      <point x="1235.2" y="1105.4"/>
      <point x="1235.2" y="944.0" type="curve" smooth="yes"/>
      <point x="1235.2" y="798.8"/>
      <point x="1085.6" y="797.4"/>
      <point x="938.0" y="797.4" type="curve" smooth="yes"/>
    </contour>
  </outline>
</glyph>
<glyph name="macron" format="1">
  <advance width="949.6"/>
  <unicode hex="00AF"/>
  <outline>
    <contour>
      <point x="103.0" y="1543.4" type="line"/>
      <point x="715.0" y="1543.4" type="line"/>
      <point x="715.0" y="1686.6" type="line"/>
      <point x="103.0" y="1686.6" type="line"/>
    </contour>
  </outline>
</glyph>
<glyph name="degree" format="1">
  <advance width="1100.8"/>
  <unicode hex="00B0"/>
  <outline>
    <contour>
      <point x="465.2" y="1239.8" type="curve" smooth="yes"/>
      <point x="436.6" y="1239.8"/>
      <point x="408.6" y="1244.8"/>
      <point x="383.6" y="1254.2" type="curve" smooth="yes"/>
      <point x="316.2" y="1280.8"/>
      <point x="258.0" y="1338.8"/>
      <point x="258.0" y="1431.8" type="curve" smooth="yes"/>
      <point x="258.0" y="1458.4"/>
      <point x="264.4" y="1484.4"/>
      <point x="274.8" y="1508.0" type="curve" smooth="yes"/>
      <point x="305.8" y="1572.4"/>
      <point x="372.6" y="1621.2"/>
      <point x="465.2" y="1621.2" type="curve" smooth="yes"/>
      <point x="493.2" y="1621.2"/>
      <point x="518.8" y="1615.8"/>
      <point x="544.4" y="1606.4" type="curve" smooth="yes"/>
      <point x="611.8" y="1580.8"/>
      <point x="672.8" y="1523.8"/>
      <point x="672.8" y="1431.8" type="curve" smooth="yes"/>
      <point x="672.8" y="1405.2"/>
      <point x="667.4" y="1379.6"/>
      <point x="656.6" y="1356.0" type="curve" smooth="yes"/>
      <point x="626.6" y="1291.0"/>
      <point x="559.2" y="1239.8"/>
    </contour>
    <contour>
      <point x="465.2" y="1115.4" type="curve" smooth="yes"/>
      <point x="511.4" y="1115.4"/>
      <point x="553.8" y="1122.8"/>
      <point x="595.6" y="1140.0" type="curve" smooth="yes"/>
      <point x="704.8" y="1183.8"/>
      <point x="806.6" y="1280.8"/>
      <point x="806.6" y="1430.8" type="curve" smooth="yes"/>
      <point x="806.6" y="1474.6"/>
      <point x="798.2" y="1514.4"/>
      <point x="780.0" y="1553.2" type="curve" smooth="yes"/>
      <point x="729.8" y="1658.6"/>
      <point x="619.2" y="1745.2"/>
      <point x="465.2" y="1745.2" type="curve" smooth="yes"/>
      <point x="419.4" y="1745.2"/>
      <point x="375.2" y="1736.8"/>
      <point x="333.4" y="1721.0" type="curve" smooth="yes"/>
      <point x="224.2" y="1677.2"/>
      <point x="124.2" y="1579.4"/>
      <point x="124.2" y="1430.8" type="curve" smooth="yes"/>
      <point x="124.2" y="1387.0"/>
      <point x="132.6" y="1347.2"/>
      <point x="150.8" y="1308.8" type="curve" smooth="yes"/>
      <point x="201.0" y="1203.0"/>
      <point x="312.2" y="1115.4"/>
    </contour>
  </outline>
</glyph>
<glyph name="uni00B2" format="1">
  <advance width="1552.0"/>
  <unicode hex="00B2"/>
  <outline>
    <contour>
      <point x="369.4" y="788.0" type="line"/>
      <point x="953.4" y="788.0" type="line"/>
      <point x="953.4" y="914.0" type="line"/>
      <point x="563.8" y="914.0" type="line"/>
      <point x="662.2" y="999.6"/>
      <point x="762.0" y="1081.8"/>
      <point x="841.2" y="1177.2" type="curve" smooth="yes"/>
      <point x="898.8" y="1247.0"/>
      <point x="954.4" y="1326.8"/>
      <point x="954.4" y="1439.0" type="curve" smooth="yes"/>
      <point x="954.4" y="1476.4"/>
      <point x="946.6" y="1509.4"/>
      <point x="932.8" y="1539.8" type="curve" smooth="yes"/>
      <point x="891.0" y="1626.4"/>
      <point x="799.4" y="1682.0"/>
      <point x="673.0" y="1682.0" type="curve" smooth="yes"/>
      <point x="525.4" y="1682.0"/>
      <point x="423.6" y="1607.6"/>
      <point x="377.8" y="1500.4" type="curve"/>
      <point x="468.8" y="1416.8" type="line"/>
      <point x="504.2" y="1492.0"/>
      <point x="564.8" y="1557.0"/>
      <point x="666.6" y="1557.0" type="curve" smooth="yes"/>
      <point x="751.2" y="1557.0"/>
      <point x="816.6" y="1517.6"/>
      <point x="816.6" y="1437.4" type="curve" smooth="yes"/>
      <point x="816.6" y="1407.4"/>
      <point x="805.8" y="1374.4"/>
      <point x="783.2" y="1338.0" type="curve" smooth="yes"/>
      <point x="760.6" y="1301.6"/>
      <point x="730.6" y="1261.8"/>
      <point x="691.2" y="1218.0" type="curve" smooth="yes"/>
      <point x="595.8" y="1113.2"/>
      <point x="483.0" y="1010.4"/>
      <point x="369.4" y="906.6" type="curve"/>
    </contour>
  </outline>
</glyph>
<glyph name="uni00B3" format="1">
  <advance width="1552.0"/>
  <unicode hex="00B3"/>
  <outline>
    <contour>
      <point x="569.8" y="764.4" type="curve" smooth="yes"/>
      <point x="612.6" y="764.4"/>
      <point x="654.4" y="770.8"/>
      <point x="692.8" y="782.6" type="curve" smooth="yes"/>
      <point x="797.6" y="815.6"/>
      <point x="889.6" y="895.2"/>
      <point x="889.6" y="1030.0" type="curve" smooth="yes"/>
      <point x="889.6" y="1139.8"/>
      <point x="832.0" y="1206.2"/>
      <point x="752.4" y="1241.6" type="curve"/>
      <point x="818.8" y="1277.0"/>
      <point x="867.0" y="1340.0"/>
      <point x="867.0" y="1435.0" type="curve" smooth="yes"/>
      <point x="867.0" y="1474.8"/>
      <point x="858.6" y="1509.2"/>
      <point x="842.4" y="1539.2" type="curve" smooth="yes"/>
      <point x="797.6" y="1622.4"/>
      <point x="703.6" y="1679.0"/>
      <point x="576.2" y="1679.0" type="curve" smooth="yes"/>
      <point x="465.0" y="1679.0"/>
      <point x="365.2" y="1628.8"/>
      <point x="306.6" y="1570.8" type="curve"/>
      <point x="368.6" y="1468.4" type="line"/>
      <point x="421.2" y="1510.8"/>
      <point x="486.2" y="1551.6"/>
      <point x="573.8" y="1551.6" type="curve" smooth="yes"/>
      <point x="660.4" y="1551.6"/>
      <point x="724.8" y="1518.6"/>
      <point x="724.8" y="1432.0" type="curve" smooth="yes"/>
      <point x="724.8" y="1324.8"/>
      <point x="622.4" y="1302.6"/>
      <point x="514.2" y="1302.6" type="curve" smooth="yes"/>
      <point x="461.6" y="1302.6" type="line"/>
      <point x="461.6" y="1175.6" type="line"/>
      <point x="489.2" y="1175.6" type="line" smooth="yes"/>
      <point x="494.6" y="1175.6"/>
      <point x="517.4" y="1176.2"/>
      <point x="521.6" y="1176.2" type="curve" smooth="yes"/>
      <point x="642.2" y="1176.2"/>
      <point x="751.4" y="1152.0"/>
      <point x="751.4" y="1033.0" type="curve" smooth="yes"/>
      <point x="751.4" y="934.6"/>
      <point x="664.8" y="887.4"/>
      <point x="564.4" y="887.4" type="curve" smooth="yes"/>
      <point x="495.0" y="887.4"/>
      <point x="430.6" y="915.4"/>
      <point x="370.6" y="970.6" type="curve"/>
      <point x="306.6" y="868.2" type="line"/>
      <point x="367.6" y="807.2"/>
      <point x="455.2" y="764.4"/>
    </contour>
  </outline>
</glyph>
<glyph name="paragraph" format="1">
  <advance width="1583.2"/>
  <unicode hex="00B6"/>
  <outline>
    <contour>
      <point x="497.6" y="-193.2" type="line"/>
      <point x="651.0" y="-193.2" type="line"/>
      <point x="651.0" y="1384.6" type="line"/>
      <point x="873.4" y="1384.6" type="line"/>
      <point x="873.4" y="-193.2" type="line"/>
      <point x="1011.6" y="-193.2" type="line"/>
      <point x="1011.6" y="1384.6" type="line"/>
      <point x="1104.2" y="1384.6" type="line"/>
      <point x="1104.2" y="1517.4" type="line"/>
      <point x="691.8" y="1517.4" type="line" smooth="yes"/>
      <point x="409.4" y="1517.4"/>
      <point x="139.4" y="1456.4"/>
      <point x="139.4" y="1174.0" type="curve" smooth="yes"/>
      <point x="139.4" y="1119.4"/>
      <point x="149.2" y="1069.2"/>
      <point x="168.4" y="1024.4" type="curve" smooth="yes"/>
      <point x="220.0" y="903.4"/>
      <point x="331.2" y="808.4"/>
      <point x="497.6" y="806.0" type="curve"/>
    </contour>
  </outline>
</glyph>
<glyph name="cedilla" format="1">
  <advance width="689.8"/>
  <unicode hex="00B8"/>
  <outline>
    <contour>
      <point x="255.0" y="-516.4" type="curve" smooth="yes"/>
      <point x="384.8" y="-516.4"/>
      <point x="512.8" y="-477.0"/>
      <point x="512.8" y="-348.6" type="curve" smooth="yes"/>
      <point x="512.8" y="-233.4"/>
      <point x="410.0" y="-194.6"/>
      <point x="298.8" y="-189.2" type="curve"/>
      <point x="289.4" y="-189.2" type="line"/>
      <point x="308.2" y="-74.6" type="line"/>
      <point x="204.8" y="-74.6" type="line"/>
      <point x="169.4" y="-277.8" type="line"/>
      <point x="203.8" y="-275.8" type="line" smooth="yes"/>
      <point x="215.6" y="-274.4"/>
      <point x="233.8" y="-272.8"/>
      <point x="243.2" y="-272.8" type="curve" smooth="yes"/>
      <point x="307.6" y="-272.8"/>
      <point x="359.8" y="-287.6"/>
      <point x="359.8" y="-351.0" type="curve" smooth="yes"/>
      <point x="359.8" y="-410.6"/>
      <point x="308.2" y="-427.8"/>
      <point x="237.8" y="-427.8" type="curve" smooth="yes"/>
      <point x="180.2" y="-427.8"/>
      <point x="129.6" y="-415.0"/>
      <point x="76.4" y="-402.2" type="curve"/>
      <point x="67.6" y="-493.2" type="line"/>
      <point x="125.6" y="-505.0"/>
      <point x="190.6" y="-516.4"/>
    </contour>
  </outline>
</glyph>
<glyph name="uni00B9" format="1">
  <advance width="1552.0"/>
  <unicode hex="00B9"/>
  <outline>
    <contour>
      <point x="345.2" y="788.0" type="line"/>
      <point x="735.4" y="788.0" type="line"/>
      <point x="735.4" y="912.4" type="line"/>
      <point x="605.0" y="912.4" type="line"/>
      <point x="605.0" y="1668.2" type="line"/>
      <point x="492.4" y="1652.0" type="line"/>
      <point x="436.8" y="1619.0"/>
      <point x="384.2" y="1590.4"/>
      <point x="312.8" y="1567.8" type="curve"/>
      <point x="311.8" y="1428.6" type="line"/>
      <point x="365.4" y="1448.8"/>
      <point x="427.0" y="1476.4"/>
      <point x="474.2" y="1501.4" type="curve"/>
      <point x="474.2" y="1391.2" type="line" smooth="yes"/>
      <point x="474.2" y="1335.6"/>
      <point x="475.2" y="1283.4"/>
      <point x="475.2" y="1220.0" type="curve" smooth="yes"/>
      <point x="475.2" y="915.4" type="line"/>
      <point x="345.2" y="915.4" type="line"/>
    </contour>
  </outline>
</glyph>
<glyph name="guillemotright" format="1">
  <advance width="1507.6"/>
  <unicode hex="00BB"/>
  <outline>
    <contour>
      <point x="215.4" y="223.0" type="line"/>
      <point x="386.6" y="223.0" type="line"/>
      <point x="680.8" y="620.0" type="line"/>
      <point x="391.6" y="1018.0" type="line"/>
      <point x="222.4" y="1018.0" type="line"/>
      <point x="498.8" y="620.0" type="line"/>
    </contour>
    <contour>
      <point x="641.0" y="223.0" type="line"/>
      <point x="809.2" y="223.0" type="line"/>
      <point x="1104.4" y="620.0" type="line"/>
      <point x="815.2" y="1018.0" type="line"/>
      <point x="648.4" y="1018.0" type="line"/>
      <point x="920.4" y="620.0" type="line"/>
    </contour>
  </outline>
</glyph>
<glyph name="onehalf" format="1">
  <advance width="3584.8"/>
  <unicode hex="00BD"/>
  <outline>
    <contour>
      <point x="617.4" y="646.4" type="line"/>
      <point x="1201.0" y="646.4" type="line"/>
      <point x="1201.0" y="772.4" type="line"/>
      <point x="811.8" y="772.4" type="line"/>
      <point x="910.2" y="858.0"/>
      <point x="1009.6" y="940.2"/>
      <point x="1088.8" y="1035.2" type="curve" smooth="yes"/>
      <point x="1146.8" y="1105.0"/>
      <point x="1202.4" y="1185.2"/>
      <point x="1202.4" y="1297.4" type="curve" smooth="yes"/>
      <point x="1202.4" y="1334.8"/>
      <point x="1195.0" y="1367.8"/>
      <point x="1181.2" y="1398.2" type="curve" smooth="yes"/>
      <point x="1139.4" y="1484.8"/>
      <point x="1047.0" y="1540.4"/>
      <point x="921.0" y="1540.4" type="curve" smooth="yes"/>
      <point x="773.0" y="1540.4"/>
      <point x="672.0" y="1465.6"/>
      <point x="625.8" y="1358.4" type="curve"/>
      <point x="716.8" y="1274.8" type="line"/>
      <point x="752.2" y="1350.0"/>
      <point x="813.2" y="1415.4"/>
      <point x="915.0" y="1415.4" type="curve" smooth="yes"/>
      <point x="999.2" y="1415.4"/>
      <point x="1064.2" y="1376.0"/>
      <point x="1064.2" y="1295.4" type="curve" smooth="yes"/>
      <point x="1064.2" y="1265.4"/>
      <point x="1053.8" y="1232.4"/>
      <point x="1031.2" y="1196.0" type="curve" smooth="yes"/>
      <point x="1009.0" y="1159.6"/>
      <point x="978.6" y="1119.8"/>
      <point x="939.2" y="1076.0" type="curve" smooth="yes"/>
      <point x="843.8" y="971.6"/>
      <point x="730.6" y="868.4"/>
      <point x="617.4" y="764.6" type="curve"/>
    </contour>
    <contour>
      <point x="1876.4" y="646.4" type="line"/>
      <point x="2266.6" y="646.4" type="line"/>
      <point x="2266.6" y="770.0" type="line"/>
      <point x="2135.8" y="770.0" type="line"/>
      <point x="2135.8" y="1526.2" type="line"/>
      <point x="2023.6" y="1510.4" type="line"/>
      <point x="1968.0" y="1477.0"/>
      <point x="1916.2" y="1448.4"/>
      <point x="1844.4" y="1425.8" type="curve"/>
      <point x="1843.0" y="1287.0" type="line"/>
      <point x="1896.6" y="1307.2"/>
      <point x="1958.6" y="1334.8"/>
      <point x="2005.8" y="1359.4" type="curve"/>
      <point x="2005.8" y="1249.6" type="line" smooth="yes"/>
      <point x="2005.8" y="1194.0"/>
      <point x="2006.8" y="1141.4"/>
      <point x="2006.8" y="1078.0" type="curve" smooth="yes"/>
      <point x="2006.8" y="773.4" type="line"/>
      <point x="1876.4" y="773.4" type="line"/>
    </contour>
    <contour>
      <point x="-439.4" y="0.0" type="line"/>
      <point x="-278.0" y="0.0" type="line"/>
      <point x="687.8" y="1536.0" type="line"/>
      <point x="528.4" y="1536.0" type="line"/>
    </contour>
  </outline>
</glyph>
<glyph name="AE" format="1">
  <advance width="2645.2"/>
  <unicode hex="00C6"/>
  <outline>
    <contour>
      <point x="6.6" y="0.0" type="line"/>
      <point x="216.2" y="0.0" type="line"/>
      <point x="457.8" y="425.6" type="line"/>
      <point x="1149.0" y="425.6" type="line"/>
      <point x="1182.0" y="0.0" type="line"/>
      <point x="2034.6" y="0.0" type="line"/>
      <point x="2034.6" y="158.4" type="line"/>
      <point x="1345.4" y="158.4" type="line"/>
      <point x="1301.6" y="718.8" type="line"/>
      <point x="1965.8" y="718.8" type="line"/>
      <point x="1965.8" y="876.8" type="line"/>
      <point x="1281.4" y="876.8" type="line"/>
      <point x="1241.0" y="1399.2" type="line"/>
      <point x="2010.0" y="1399.2" type="line"/>
      <point x="2010.0" y="1557.6" type="line"/>
      <point x="895.6" y="1557.6" type="line"/>
    </contour>
    <contour>
      <point x="542.4" y="584.0" type="line"/>
      <point x="1010.8" y="1399.2" type="line"/>
      <point x="1064.4" y="1399.2" type="line"/>
      <point x="1128.8" y="584.0" type="line"/>
    </contour>
  </outline>
</glyph>
<glyph name="Oslash" format="1">
  <advance width="2169.4"/>
  <unicode hex="00D8"/>
  <outline>
    <contour>
      <point x="584.6" y="-215.4" type="line"/>
      <point x="663.8" y="-29.0" type="line"/>
      <point x="741.2" y="-52.2"/>
      <point x="825.6" y="-64.2"/>
      <point x="916.8" y="-64.2" type="curve" smooth="yes"/>
      <point x="1422.0" y="-64.2"/>
      <point x="1682.0" y="321.6"/>
      <point x="1682.0" y="740.8" type="curve" smooth="yes"/>
      <point x="1682.0" y="1070.6"/>
      <point x="1541.4" y="1332.4"/>
      <point x="1296.2" y="1460.6" type="curve"/>
      <point x="1377.6" y="1652.6" type="line"/>
      <point x="1243.8" y="1699.4" type="line"/>
      <point x="1165.0" y="1513.6" type="line"/>
      <point x="1089.0" y="1535.8"/>
      <point x="1005.8" y="1547.4"/>
      <point x="916.8" y="1547.4" type="curve" smooth="yes"/>
      <point x="410.0" y="1547.4"/>
      <point x="149.2" y="1161.2"/>
      <point x="149.2" y="740.8" type="curve" smooth="yes"/>
      <point x="149.2" y="412.4"/>
      <point x="290.2" y="150.6"/>
      <point x="536.0" y="22.4" type="curve"/>
      <point x="455.2" y="-168.2" type="line"/>
    </contour>
    <contour>
      <point x="603.6" y="183.0" type="line"/>
      <point x="442.0" y="288.2"/>
      <point x="346.0" y="484.2"/>
      <point x="346.0" y="741.0" type="curve" smooth="yes"/>
      <point x="346.0" y="1167.6"/>
      <point x="619.6" y="1386.6"/>
      <point x="916.8" y="1386.6" type="curve" smooth="yes"/>
      <point x="981.8" y="1386.6"/>
      <point x="1042.8" y="1377.2"/>
      <point x="1099.8" y="1359.2" type="curve"/>
    </contour>
    <contour>
      <point x="916.8" y="95.0" type="curve" smooth="yes"/>
      <point x="849.6" y="95.0"/>
      <point x="786.8" y="104.4"/>
      <point x="728.6" y="123.8" type="curve"/>
      <point x="1227.2" y="1298.4" type="line"/>
      <point x="1387.0" y="1193.2"/>
      <point x="1483.2" y="997.8"/>
      <point x="1483.2" y="741.0" type="curve" smooth="yes"/>
      <point x="1483.2" y="314.0"/>
      <point x="1211.2" y="95.0"/>
    </contour>
  </outline>
</glyph>
<glyph name="Thorn" format="1">
  <advance width="1661.6"/>
  <unicode hex="00DE"/>
  <outline>
    <contour>
      <point x="265.0" y="0.0" type="line"/>
      <point x="449.0" y="0.0" type="line"/>
      <point x="449.0" y="473.8" type="line"/>
      <point x="686.2" y="473.8" type="line" smooth="yes"/>
      <point x="864.8" y="473.8"/>
      <point x="1024.2" y="513.6"/>
      <point x="1136.8" y="584.0" type="curve" smooth="yes"/>
      <point x="1246.6" y="653.8"/>
      <point x="1331.2" y="764.0"/>
      <point x="1331.2" y="937.2" type="curve" smooth="yes"/>
      <point x="1331.2" y="1317.0"/>
      <point x="1009.4" y="1403.2"/>
      <point x="629.6" y="1403.2" type="curve" smooth="yes"/>
      <point x="449.0" y="1403.2" type="line"/>
      <point x="449.0" y="1557.6" type="line"/>
      <point x="265.0" y="1557.6" type="line"/>
    </contour>
    <contour>
      <point x="449.0" y="633.2" type="line"/>
      <point x="449.0" y="1245.2" type="line"/>
      <point x="676.4" y="1245.2" type="line" smooth="yes"/>
      <point x="933.2" y="1245.2"/>
      <point x="1134.4" y="1191.6"/>
      <point x="1134.4" y="934.8" type="curve" smooth="yes"/>
      <point x="1134.4" y="882.6"/>
      <point x="1124.6" y="836.4"/>
      <point x="1104.4" y="799.0" type="curve" smooth="yes"/>
      <point x="1042.8" y="683.8"/>
      <point x="905.2" y="633.2"/>
      <point x="728.0" y="633.2" type="curve" smooth="yes"/>
    </contour>
  </outline>
</glyph>
<glyph name="germandbls" format="1">
  <advance width="1639.4"/>
  <unicode hex="00DF"/>
  <outline>
    <contour>
      <point x="888.0" y="-29.8" type="curve" smooth="yes"/>
      <point x="940.6" y="-29.8"/>
      <point x="990.8" y="-20.4"/>
      <point x="1040.0" y="-2.2" type="curve" smooth="yes"/>
      <point x="1178.8" y="50.4"/>
      <point x="1295.4" y="170.0"/>
      <point x="1295.4" y="359.4" type="curve" smooth="yes"/>
      <point x="1295.4" y="429.8"/>
      <point x="1282.0" y="491.2"/>
      <point x="1252.6" y="544.4" type="curve" smooth="yes"/>
      <point x="1168.4" y="701.8"/>
      <point x="999.2" y="793.8"/>
      <point x="813.2" y="848.4" type="curve" smooth="yes"/>
      <point x="793.0" y="854.8"/>
      <point x="782.2" y="860.8"/>
      <point x="782.2" y="867.2" type="curve" smooth="yes"/>
      <point x="782.2" y="879.4"/>
      <point x="800.4" y="886.8"/>
      <point x="810.2" y="890.8" type="curve" smooth="yes"/>
      <point x="884.0" y="923.2"/>
      <point x="952.4" y="974.4"/>
      <point x="1006.6" y="1030.0" type="curve" smooth="yes"/>
      <point x="1062.6" y="1085.6"/>
      <point x="1122.2" y="1163.4"/>
      <point x="1122.2" y="1269.6" type="curve" smooth="yes"/>
      <point x="1122.2" y="1316.8"/>
      <point x="1112.8" y="1360.6"/>
      <point x="1093.2" y="1402.4" type="curve" smooth="yes"/>
      <point x="1029.8" y="1534.8"/>
      <point x="884.0" y="1611.0"/>
      <point x="686.8" y="1611.0" type="curve" smooth="yes"/>
      <point x="613.0" y="1611.0"/>
      <point x="548.0" y="1600.2"/>
      <point x="490.0" y="1577.6" type="curve" smooth="yes"/>
      <point x="326.2" y="1513.2"/>
      <point x="226.8" y="1366.4"/>
      <point x="226.8" y="1140.2" type="curve" smooth="yes"/>
      <point x="229.2" y="-5.6" type="line"/>
      <point x="405.4" y="-5.6" type="line"/>
      <point x="405.4" y="102.6"/>
      <point x="404.4" y="226.6"/>
      <point x="404.4" y="343.6" type="curve" smooth="yes"/>
      <point x="404.4" y="476.0"/>
      <point x="402.4" y="622.6"/>
      <point x="402.4" y="755.0" type="curve" smooth="yes"/>
      <point x="402.4" y="871.6"/>
      <point x="401.4" y="997.0"/>
      <point x="401.4" y="1105.2" type="curve" smooth="yes"/>
      <point x="401.4" y="1308.4"/>
      <point x="482.6" y="1472.8"/>
      <point x="685.8" y="1472.8" type="curve" smooth="yes"/>
      <point x="822.6" y="1472.8"/>
      <point x="921.4" y="1404.8"/>
      <point x="921.4" y="1268.6" type="curve" smooth="yes"/>
      <point x="921.4" y="1232.2"/>
      <point x="915.0" y="1197.8"/>
      <point x="901.2" y="1166.2" type="curve" smooth="yes"/>
      <point x="857.4" y="1065.4"/>
      <point x="769.4" y="994.0"/>
      <point x="669.6" y="948.8" type="curve"/>
      <point x="652.4" y="803.2" type="line"/>
      <point x="759.6" y="742.6"/>
      <point x="871.8" y="680.2"/>
      <point x="958.4" y="604.0" type="curve" smooth="yes"/>
      <point x="1028.8" y="542.4"/>
      <point x="1095.6" y="462.2"/>
      <point x="1095.6" y="339.2" type="curve" smooth="yes"/>
      <point x="1095.6" y="205.4"/>
      <point x="1015.4" y="111.0"/>
      <point x="884.0" y="111.0" type="curve" smooth="yes"/>
      <point x="767.4" y="111.0"/>
      <point x="679.4" y="179.4"/>
      <point x="614.4" y="254.6" type="curve"/>
      <point x="544.6" y="142.4" type="line"/>
      <point x="621.4" y="44.6"/>
      <point x="734.0" y="-29.8"/>
    </contour>
  </outline>
</glyph>
<glyph name="eth" format="1">
  <advance width="1552.0"/>
  <unicode hex="00F0"/>
  <outline>
    <contour>
      <point x="642.2" y="-29.8" type="curve" smooth="yes"/>
      <point x="728.8" y="-29.8"/>
      <point x="805.6" y="-13.6"/>
      <point x="874.0" y="18.0" type="curve" smooth="yes"/>
      <point x="1096.4" y="124.2"/>
      <point x="1189.8" y="380.6"/>
      <point x="1189.8" y="713.6" type="curve" smooth="yes"/>
      <point x="1189.8" y="856.2"/>
      <point x="1170.6" y="979.8"/>
      <point x="1138.6" y="1092.0" type="curve"/>
      <point x="1293.6" y="1092.0" type="line"/>
      <point x="1293.6" y="1238.6" type="line"/>
      <point x="1083.0" y="1238.6" type="line"/>
      <point x="1004.8" y="1401.4"/>
      <point x="889.2" y="1522.0"/>
      <point x="719.0" y="1588.4" type="curve"/>
      <point x="634.8" y="1498.4" type="line"/>
      <point x="752.4" y="1432.4"/>
      <point x="840.0" y="1354.2"/>
      <point x="904.4" y="1238.6" type="curve"/>
      <point x="684.0" y="1238.6" type="line"/>
      <point x="684.0" y="1092.0" type="line"/>
      <point x="964.0" y="1092.0" type="line"/>
      <point x="989.6" y="997.0"/>
      <point x="1001.4" y="900.6"/>
      <point x="1002.4" y="778.6" type="curve"/>
      <point x="1002.4" y="768.2" type="line"/>
      <point x="925.6" y="890.8"/>
      <point x="796.2" y="954.2"/>
      <point x="603.4" y="954.2" type="curve" smooth="yes"/>
      <point x="528.6" y="954.2"/>
      <point x="461.6" y="942.4"/>
      <point x="401.6" y="918.8" type="curve" smooth="yes"/>
      <point x="233.8" y="852.4"/>
      <point x="114.8" y="702.8"/>
      <point x="114.8" y="471.6" type="curve" smooth="yes"/>
      <point x="114.8" y="401.2"/>
      <point x="126.2" y="334.4"/>
      <point x="151.2" y="273.8" type="curve" smooth="yes"/>
      <point x="222.6" y="93.8"/>
      <point x="392.2" y="-29.8"/>
    </contour>
    <contour>
      <point x="633.8" y="121.2" type="curve" smooth="yes"/>
      <point x="583.2" y="121.2"/>
      <point x="538.4" y="129.2"/>
      <point x="497.6" y="146.4" type="curve" smooth="yes"/>
      <point x="383.0" y="195.6"/>
      <point x="303.2" y="306.2"/>
      <point x="303.2" y="466.2" type="curve" smooth="yes"/>
      <point x="303.2" y="677.2"/>
      <point x="419.4" y="804.2"/>
      <point x="632.4" y="804.2" type="curve" smooth="yes"/>
      <point x="814.4" y="804.2"/>
      <point x="939.4" y="704.8"/>
      <point x="986.6" y="568.0" type="curve"/>
      <point x="986.6" y="542.4" type="line" smooth="yes"/>
      <point x="986.6" y="304.8"/>
      <point x="874.0" y="121.2"/>
    </contour>
  </outline>
</glyph>
<glyph name="divide" format="1">
  <advance width="1901.6"/>
  <unicode hex="00F7"/>
  <outline>
    <contour>
      <point x="709.0" y="27.4" type="line"/>
      <point x="940.8" y="27.4" type="line"/>
      <point x="940.8" y="252.2" type="line"/>
      <point x="709.0" y="252.2" type="line"/>
    </contour>
    <contour>
      <point x="258.4" y="523.4" type="line"/>
      <point x="1379.6" y="523.4" type="line"/>
      <point x="1379.6" y="672.4" type="line"/>
      <point x="258.4" y="672.4" type="line"/>
    </contour>
    <contour>
      <point x="709.0" y="938.6" type="line"/>
      <point x="940.8" y="938.6" type="line"/>
      <point x="940.8" y="1163.4" type="line"/>
      <point x="709.0" y="1163.4" type="line"/>
    </contour>
  </outline>
</glyph>
<glyph name="thorn" format="1">
  <advance width="1615.8"/>
  <unicode hex="00FE"/>
  <outline>
    <contour>
      <point x="206.4" y="-557.0" type="line"/>
      <point x="382.6" y="-557.0" type="line"/>
      <point x="382.6" y="44.2" type="line"/>
      <point x="474.6" y="-68.4"/>
      <point x="597.6" y="-125.0"/>
      <point x="751.6" y="-125.0" type="curve" smooth="yes"/>
      <point x="836.2" y="-125.0"/>
      <point x="909.0" y="-108.4"/>
      <point x="972.0" y="-76.4" type="curve" smooth="yes"/>
      <point x="1146.6" y="13.2"/>
      <point x="1255.4" y="203.6"/>
      <point x="1255.4" y="463.4" type="curve" smooth="yes"/>
      <point x="1255.4" y="539.2"/>
      <point x="1244.6" y="610.0"/>
      <point x="1224.4" y="678.8" type="curve" smooth="yes"/>
      <point x="1164.8" y="879.6"/>
      <point x="1012.4" y="1023.8"/>
      <point x="751.6" y="1023.8" type="curve" smooth="yes"/>
      <point x="579.4" y="1023.8"/>
      <point x="464.2" y="950.0"/>
      <point x="385.0" y="843.2" type="curve"/>
      <point x="385.0" y="1456.2" type="line"/>
      <point x="206.4" y="1456.2" type="line"/>
    </contour>
    <contour>
      <point x="726.0" y="16.2" type="curve" smooth="yes"/>
      <point x="670.4" y="16.2"/>
      <point x="620.8" y="27.0"/>
      <point x="578.4" y="47.2" type="curve" smooth="yes"/>
      <point x="453.0" y="108.2"/>
      <point x="382.6" y="243.0"/>
      <point x="382.6" y="428.0" type="curve" smooth="yes"/>
      <point x="382.6" y="682.8"/>
      <point x="477.0" y="880.6"/>
      <point x="732.4" y="880.6" type="curve" smooth="yes"/>
      <point x="973.4" y="880.6"/>
      <point x="1067.4" y="696.6"/>
      <point x="1067.4" y="457.0" type="curve" smooth="yes"/>
      <point x="1067.4" y="216.4"/>
      <point x="968.0" y="16.2"/>
    </contour>
  </outline>
</glyph>
<glyph name="dotlessi" format="1">
  <advance width="726.6"/>
  <unicode hex="0131"/>
  <outline>
    <contour>
      <point x="493.6" y="-6.6" type="curve" smooth="yes"/>
      <point x="545.0" y="-6.6"/>
      <point x="615.2" y="8.4"/>
      <point x="670.8" y="30.8" type="curve"/>
      <point x="649.6" y="181.8" type="line"/>
      <point x="610.2" y="167.2"/>
      <point x="556.2" y="157.2"/>
      <point x="524.6" y="157.2" type="curve" smooth="yes"/>
      <point x="448.6" y="157.2"/>
      <point x="393.2" y="201.0"/>
      <point x="393.2" y="333.8" type="curve" smooth="yes"/>
      <point x="393.2" y="1096.0" type="line"/>
      <point x="174.2" y="1096.0" type="line"/>
      <point x="174.2" y="296.0" type="line" smooth="yes"/>
      <point x="174.2" y="85.8"/>
      <point x="308.4" y="-6.6"/>
    </contour>
  </outline>
</glyph>
<glyph name="kgreenlandic" format="1">
  <advance width="1411.2"/>
  <unicode hex="0138"/>
  <outline>
    <contour>
      <point x="232.4" y="0.0" type="line"/>
      <point x="408.6" y="0.0" type="line"/>
      <point x="408.6" y="503.8" type="line"/>
      <point x="954.2" y="0.0" type="line"/>
      <point x="1188.4" y="0.0" type="line"/>
      <point x="984.2" y="186.0"/>
      <point x="785.4" y="361.2"/>
      <point x="581.2" y="547.6" type="curve"/>
      <point x="1148.0" y="1097.6" type="line"/>
      <point x="907.0" y="1097.6" type="line"/>
      <point x="408.6" y="595.8" type="line"/>
      <point x="408.6" y="1097.6" type="line"/>
      <point x="232.4" y="1097.6" type="line"/>
    </contour>
  </outline>
</glyph>
<glyph name="Lslash" format="1">
  <advance width="1460.8"/>
  <unicode hex="0141"/>
  <outline>
    <contour>
      <point x="219.6" y="0.0" type="line"/>
      <point x="1151.4" y="0.0" type="line"/>
      <point x="1151.4" y="158.4" type="line"/>
      <point x="403.6" y="158.4" type="line"/>
      <point x="403.6" y="761.6" type="line"/>
      <point x="708.6" y="952.0" type="line"/>
      <point x="708.6" y="1098.6" type="line"/>
      <point x="403.6" y="908.2" type="line"/>
      <point x="403.6" y="1557.6" type="line"/>
      <point x="219.6" y="1557.6" type="line"/>
      <point x="219.6" y="793.6" type="line"/>
      <point x="19.8" y="669.6" type="line"/>
      <point x="19.8" y="523.0" type="line"/>
      <point x="219.6" y="647.0" type="line"/>
    </contour>
  </outline>
</glyph>
<glyph name="oe" format="1">
  <advance width="2570.0"/>
  <unicode hex="0153"/>
  <outline>
    <contour>
      <point x="674.0" y="-36.4" type="curve" smooth="yes"/>
      <point x="899.8" y="-36.4"/>
      <point x="1049.8" y="54.6"/>
      <point x="1114.8" y="217.0" type="curve"/>
      <point x="1179.2" y="60.0"/>
      <point x="1319.4" y="-36.4"/>
      <point x="1530.0" y="-36.4" type="curve" smooth="yes"/>
      <point x="1750.4" y="-36.4"/>
      <point x="1900.6" y="60.6"/>
      <point x="1985.2" y="213.6" type="curve"/>
      <point x="1891.2" y="306.0" type="line"/>
      <point x="1823.8" y="198.8"/>
      <point x="1705.6" y="110.2"/>
      <point x="1541.8" y="110.2" type="curve" smooth="yes"/>
      <point x="1488.6" y="110.2"/>
      <point x="1442.4" y="119.6"/>
      <point x="1401.6" y="137.8" type="curve" smooth="yes"/>
      <point x="1285.0" y="191.4"/>
      <point x="1216.6" y="310.4"/>
      <point x="1212.2" y="475.2" type="curve"/>
      <point x="1212.2" y="496.4" type="line"/>
      <point x="2019.6" y="498.4" type="line"/>
      <point x="2019.6" y="555.0" type="line" smooth="yes"/>
      <point x="2019.6" y="886.6"/>
      <point x="1867.6" y="1119.8"/>
      <point x="1537.0" y="1119.8" type="curve" smooth="yes"/>
      <point x="1322.0" y="1119.8"/>
      <point x="1193.0" y="1023.8"/>
      <point x="1120.2" y="871.8" type="curve"/>
      <point x="1040.0" y="1024.8"/>
      <point x="909.6" y="1119.8"/>
      <point x="684.8" y="1119.8" type="curve" smooth="yes"/>
      <point x="595.2" y="1119.8"/>
      <point x="515.6" y="1105.0"/>
      <point x="445.2" y="1074.0" type="curve" smooth="yes"/>
      <point x="253.8" y="990.8"/>
      <point x="120.0" y="807.4"/>
      <point x="120.0" y="537.8" type="curve" smooth="yes"/>
      <point x="120.0" y="458.6"/>
      <point x="132.8" y="383.8"/>
      <point x="157.4" y="314.0" type="curve" smooth="yes"/>
      <point x="230.2" y="110.8"/>
      <point x="400.4" y="-36.4"/>
    </contour>
    <contour>
      <point x="684.8" y="110.2" type="curve" smooth="yes"/>
      <point x="619.8" y="110.2"/>
      <point x="562.8" y="122.0"/>
      <point x="515.6" y="144.6" type="curve" smooth="yes"/>
      <point x="383.2" y="207.6"/>
      <point x="305.4" y="343.4"/>
      <point x="305.4" y="535.8" type="curve" smooth="yes"/>
      <point x="305.4" y="594.4"/>
      <point x="313.4" y="650.0"/>
      <point x="329.6" y="702.6" type="curve" smooth="yes"/>
      <point x="374.4" y="851.2"/>
      <point x="484.6" y="974.2"/>
      <point x="676.0" y="974.2" type="curve" smooth="yes"/>
      <point x="926.4" y="974.2"/>
      <point x="1032.6" y="790.2"/>
      <point x="1032.6" y="540.2" type="curve" smooth="yes"/>
      <point x="1032.6" y="300.6"/>
      <point x="925.8" y="110.2"/>
    </contour>
    <contour>
      <point x="1212.2" y="644.6" type="line"/>
      <point x="1215.6" y="687.4"/>
      <point x="1225.0" y="729.2"/>
      <point x="1240.8" y="769.0" type="curve" smooth="yes"/>
      <point x="1287.0" y="881.2"/>
      <point x="1387.4" y="974.2"/>
      <point x="1543.4" y="974.2" type="curve" smooth="yes"/>
      <point x="1740.6" y="974.2"/>
      <point x="1834.6" y="841.8"/>
      <point x="1834.6" y="644.6" type="curve"/>
    </contour>
  </outline>
</glyph>
<glyph name="uni0216" format="1">
  <advance width="1963.0"/>
  <unicode hex="0216"/>
  <outline>
    <contour>
      <point x="858.6" y="-28.8" type="curve" smooth="yes"/>
      <point x="1245.8" y="-28.8"/>
      <point x="1455.4" y="199.4"/>
      <point x="1457.4" y="584.2" type="curve"/>
      <point x="1457.4" y="1552.4" type="line"/>
      <point x="1274.8" y="1552.4" type="line"/>
      <point x="1274.8" y="571.4" type="line" smooth="yes"/>
      <point x="1274.8" y="293.4"/>
      <point x="1126.2" y="126.6"/>
      <point x="856.6" y="126.6" type="curve" smooth="yes"/>
      <point x="565.8" y="126.6"/>
      <point x="416.8" y="273.2"/>
      <point x="416.8" y="578.8" type="curve" smooth="yes"/>
      <point x="416.8" y="1552.4" type="line"/>
      <point x="232.8" y="1552.4" type="line"/>
      <point x="232.8" y="573.8" type="line" smooth="yes"/>
      <point x="232.8" y="163.0"/>
      <point x="447.8" y="-28.8"/>
    </contour>
    <contour>
      <point x="542.2" y="1757.6" type="curve"/>
      <point x="634.8" y="1757.6" type="line"/>
      <point x="651.0" y="1851.6"/>
      <point x="729.2" y="1895.4"/>
      <point x="838.4" y="1895.4" type="curve" smooth="yes"/>
      <point x="947.6" y="1895.4"/>
      <point x="1032.2" y="1847.6"/>
      <point x="1053.4" y="1757.6" type="curve"/>
      <point x="1145.4" y="1757.6" type="line"/>
      <point x="1131.6" y="1922.4"/>
      <point x="1023.4" y="2010.0"/>
      <point x="846.2" y="2010.0" type="curve" smooth="yes"/>
      <point x="663.2" y="2010.0"/>
      <point x="556.0" y="1928.8"/>
    </contour>
  </outline>
</glyph>
<glyph name="uni0237" format="1">
  <advance width="655.8"/>
  <unicode hex="0237"/>
  <outline>
    <contour>
      <point x="-1.4" y="-559.8" type="curve" smooth="yes"/>
      <point x="47.8" y="-559.8"/>
      <point x="89.6" y="-552.0"/>
      <point x="126.0" y="-536.2" type="curve" smooth="yes"/>
      <point x="292.4" y="-463.4"/>
      <point x="339.6" y="-261.2"/>
      <point x="339.6" y="-22.6" type="curve" smooth="yes"/>
      <point x="339.6" y="996.8" type="line"/>
      <point x="163.0" y="996.8" type="line"/>
      <point x="163.0" y="-67.8" type="line" smooth="yes"/>
      <point x="163.0" y="-256.8"/>
      <point x="123.6" y="-403.8"/>
      <point x="-43.2" y="-403.8" type="curve" smooth="yes"/>
      <point x="-75.2" y="-403.8"/>
      <point x="-101.2" y="-398.0"/>
      <point x="-133.2" y="-393.0" type="curve"/>
      <point x="-132.2" y="-545.6" type="line"/>
      <point x="-91.4" y="-555.0"/>
      <point x="-48.6" y="-559.8"/>
    </contour>
  </outline>
</glyph>
<glyph name="caron" format="1">
  <advance width="911.8"/>
  <unicode hex="02C7"/>
  <outline>
    <contour>
      <point x="293.6" y="1526.4" type="line"/>
      <point x="460.0" y="1526.4" type="line"/>
      <point x="715.2" y="1871.8" type="line"/>
      <point x="550.0" y="1871.8" type="line"/>
      <point x="370.4" y="1641.6" type="line"/>
      <point x="195.2" y="1871.8" type="line"/>
      <point x="37.8" y="1871.8" type="line"/>
    </contour>
  </outline>
</glyph>
<glyph name="breve" format="1">
  <advance width="820.2"/>
  <unicode hex="02D8"/>
  <outline>
    <contour>
      <point x="345.6" y="1588.8" type="curve" smooth="yes"/>
      <point x="523.2" y="1588.8"/>
      <point x="631.4" y="1676.8"/>
      <point x="645.2" y="1841.6" type="curve"/>
      <point x="552.8" y="1841.6" type="line"/>
      <point x="531.6" y="1751.6"/>
      <point x="447.4" y="1703.4"/>
      <point x="338.2" y="1703.4" type="curve" smooth="yes"/>
      <point x="229.0" y="1703.4"/>
      <point x="150.8" y="1747.6"/>
      <point x="135.0" y="1841.6" type="curve"/>
      <point x="42.0" y="1841.6" type="line"/>
      <point x="55.8" y="1670.4"/>
      <point x="163.0" y="1588.8"/>
    </contour>
  </outline>
</glyph>
<glyph name="dotaccent" format="1">
  <advance width="683.2"/>
  <unicode hex="02D9"/>
  <outline>
    <contour>
      <point x="240.0" y="1625.6" type="line"/>
      <point x="411.6" y="1625.6" type="line"/>
      <point x="411.6" y="1799.8" type="line"/>
      <point x="240.0" y="1799.8" type="line"/>
    </contour>
  </outline>
</glyph>
<glyph name="uni0307" format="1">
  <advance width="683.2"/>
  <unicode hex="0307"/>
  <outline>
    <contour>
      <point x="240.0" y="1625.6" type="line"/>
      <point x="411.6" y="1625.6" type="line"/>
      <point x="411.6" y="1799.8" type="line"/>
      <point x="240.0" y="1799.8" type="line"/>
    </contour>
  </outline>
</glyph>
<glyph name="dblgravecmb" format="1">
  <advance width="681.6"/>
  <unicode hex="030F"/>
  <outline>
    <contour>
      <point x="-74.6" y="1531.2" type="line"/>
      <point x="53.8" y="1531.2" type="line"/>
      <point x="-181.8" y="1866.2" type="line"/>
      <point x="-369.8" y="1866.2" type="line"/>
    </contour>
    <contour>
      <point x="212.8" y="1531.2" type="line"/>
      <point x="339.2" y="1531.2" type="line"/>
      <point x="107.0" y="1866.2" type="line"/>
      <point x="-81.0" y="1866.2" type="line"/>
    </contour>
  </outline>
</glyph>
<glyph name="commaaccentcomb" format="1">
  <advance width="380.4"/>
  <unicode hex="0326"/>
  <outline>
    <contour>
      <point x="-222.0" y="-815.4" type="line"/>
      <point x="-81.8" y="-815.4" type="line"/>
      <point x="92.0" y="-320.0" type="line"/>
      <point x="-107.8" y="-320.0" type="line"/>
    </contour>
  </outline>
</glyph>
<glyph name="pi" format="1">
  <advance width="1680.0"/>
  <unicode hex="03C0"/>
  <outline>
    <contour>
      <point x="1139.0" y="-10.4" type="curve" smooth="yes"/>
      <point x="1189.2" y="-10.4"/>
      <point x="1237.4" y="-3.6"/>
      <point x="1285.6" y="4.8" type="curve"/>
      <point x="1274.8" y="35.8"/>
      <point x="1271.8" y="67.8"/>
      <point x="1271.8" y="105.2" type="curve" smooth="yes"/>
      <point x="1271.8" y="116.0"/>
      <point x="1271.8" y="126.8"/>
      <point x="1272.8" y="137.2" type="curve" smooth="yes"/>
      <point x="1274.8" y="169.2" type="line"/>
      <point x="1243.8" y="159.8"/>
      <point x="1215.8" y="155.4"/>
      <point x="1189.2" y="155.4" type="curve" smooth="yes"/>
      <point x="1099.6" y="155.4"/>
      <point x="1084.0" y="218.8"/>
      <point x="1084.0" y="306.4" type="curve" smooth="yes"/>
      <point x="1084.0" y="968.2" type="line"/>
      <point x="1302.4" y="968.2" type="line"/>
      <point x="1302.4" y="1110.8" type="line"/>
      <point x="399.0" y="1110.8" type="line" smooth="yes"/>
      <point x="247.0" y="1110.8"/>
      <point x="106.8" y="1107.8"/>
      <point x="22.2" y="1043.4" type="curve"/>
      <point x="40.4" y="903.2" type="line"/>
      <point x="122.6" y="947.0"/>
      <point x="211.2" y="965.2"/>
      <point x="336.6" y="968.2" type="curve"/>
      <point x="331.6" y="788.2"/>
      <point x="320.8" y="604.6"/>
      <point x="299.2" y="437.8" type="curve" smooth="yes"/>
      <point x="279.0" y="279.4"/>
      <point x="252.4" y="110.6"/>
      <point x="188.0" y="-1.6" type="curve"/>
      <point x="368.6" y="-1.6" type="line"/>
      <point x="381.8" y="20.6"/>
      <point x="393.2" y="52.6"/>
      <point x="404.0" y="92.4" type="curve" smooth="yes"/>
      <point x="473.8" y="356.6"/>
      <point x="494.0" y="660.2"/>
      <point x="517.6" y="968.2" type="curve"/>
      <point x="914.6" y="968.2" type="line"/>
      <point x="914.6" y="296.2" type="line" smooth="yes"/>
      <point x="914.6" y="109.2"/>
      <point x="954.0" y="-10.4"/>
    </contour>
  </outline>
</glyph>
<glyph name="emdash" format="1">
  <advance width="2831.8"/>
  <unicode hex="2014"/>
  <outline>
    <contour>
      <point x="-3.8" y="637.8" type="line"/>
      <point x="2309.6" y="637.8" type="line"/>
      <point x="2309.6" y="784.4" type="line"/>
      <point x="-3.8" y="784.4" type="line"/>
    </contour>
  </outline>
</glyph>
<glyph name="quoteleft" format="1">
  <advance width="721.4"/>
  <unicode hex="2018"/>
  <outline>
    <contour>
      <point x="169.6" y="1334.6" type="line"/>
      <point x="364.4" y="1334.6" type="line"/>
      <point x="475.6" y="1805.4" type="line"/>
      <point x="334.4" y="1805.4" type="line"/>
    </contour>
  </outline>
</glyph>
<glyph name="quoteright" format="1">
  <advance width="721.4"/>
  <unicode hex="2019"/>
  <outline>
    <contour>
      <point x="182.8" y="1334.6" type="line"/>
      <point x="324.0" y="1334.6" type="line"/>
      <point x="488.4" y="1805.4" type="line"/>
      <point x="295.0" y="1805.4" type="line"/>
    </contour>
  </outline>
</glyph>
<glyph name="quotedblleft" format="1">
  <advance width="1335.6"/>
  <unicode hex="201C"/>
  <outline>
    <contour>
      <point x="233.8" y="1334.6" type="line"/>
      <point x="428.2" y="1334.6" type="line"/>
      <point x="540.4" y="1805.4" type="line"/>
      <point x="398.2" y="1805.4" type="line"/>
    </contour>
    <contour>
      <point x="606.8" y="1334.6" type="line"/>
      <point x="802.6" y="1334.6" type="line"/>
      <point x="913.8" y="1805.4" type="line"/>
      <point x="771.6" y="1805.4" type="line"/>
    </contour>
  </outline>
</glyph>
<glyph name="quotedblbase" format="1">
  <advance width="1335.6"/>
  <unicode hex="201E"/>
  <outline>
    <contour>
      <point x="232.4" y="-310.4" type="line"/>
      <point x="375.6" y="-310.4" type="line"/>
      <point x="539.0" y="159.0" type="line"/>
      <point x="344.6" y="159.0" type="line"/>
    </contour>
    <contour>
      <point x="616.2" y="-310.4" type="line"/>
      <point x="758.4" y="-310.4" type="line"/>
      <point x="923.2" y="159.0" type="line"/>
      <point x="727.4" y="159.0" type="line"/>
    </contour>
  </outline>
</glyph>
<glyph name="dagger" format="1">
  <advance width="1332.8"/>
  <unicode hex="2020"/>
  <outline>
    <contour>
      <point x="488.2" y="147.4" type="line"/>
      <point x="625.4" y="147.4" type="line"/>
      <point x="625.4" y="1025.6" type="line"/>
      <point x="1008.2" y="1025.6" type="line"/>
      <point x="1008.2" y="1166.8" type="line"/>
      <point x="640.2" y="1166.8" type="line"/>
      <point x="640.2" y="1578.6" type="line"/>
      <point x="488.2" y="1578.6" type="line"/>
      <point x="488.2" y="1166.8" type="line"/>
      <point x="139.4" y="1166.8" type="line"/>
      <point x="139.4" y="1025.6" type="line"/>
      <point x="488.2" y="1025.6" type="line"/>
    </contour>
  </outline>
</glyph>
<glyph name="bullet" format="1">
  <advance width="1289.0"/>
  <unicode hex="2022"/>
  <outline>
    <contour>
      <point x="564.6" y="502.2" type="curve" smooth="yes"/>
      <point x="672.8" y="502.2"/>
      <point x="761.0" y="546.0"/>
      <point x="820.0" y="601.6" type="curve" smooth="yes"/>
      <point x="878.0" y="654.8"/>
      <point x="928.2" y="736.4"/>
      <point x="928.2" y="840.2" type="curve" smooth="yes"/>
      <point x="928.2" y="885.0"/>
      <point x="918.8" y="927.2"/>
      <point x="899.2" y="967.6" type="curve" smooth="yes"/>
      <point x="846.6" y="1079.8"/>
      <point x="732.4" y="1170.4"/>
      <point x="569.6" y="1170.4" type="curve" smooth="yes"/>
      <point x="521.8" y="1170.4"/>
      <point x="474.6" y="1162.4"/>
      <point x="430.8" y="1143.8" type="curve" smooth="yes"/>
      <point x="314.2" y="1096.6"/>
      <point x="205.0" y="991.2"/>
      <point x="205.0" y="832.8" type="curve" smooth="yes"/>
      <point x="205.0" y="788.0"/>
      <point x="214.4" y="744.8"/>
      <point x="232.6" y="705.4" type="curve" smooth="yes"/>
      <point x="285.2" y="591.8"/>
      <point x="400.4" y="502.2"/>
    </contour>
  </outline>
</glyph>
<glyph name="ellipsis" format="1">
  <advance width="2113.2"/>
  <unicode hex="2026"/>
  <outline>
    <contour>
      <point x="207.4" y="-14.6" type="line"/>
      <point x="439.6" y="-14.6" type="line"/>
      <point x="439.6" y="210.2" type="line"/>
      <point x="207.4" y="210.2" type="line"/>
    </contour>
    <contour>
      <point x="785.0" y="-14.6" type="line"/>
      <point x="1017.2" y="-14.6" type="line"/>
      <point x="1017.2" y="210.2" type="line"/>
      <point x="785.0" y="210.2" type="line"/>
    </contour>
    <contour>
      <point x="1362.6" y="-14.6" type="line"/>
      <point x="1594.8" y="-14.6" type="line"/>
      <point x="1594.8" y="210.2" type="line"/>
      <point x="1362.6" y="210.2" type="line"/>
    </contour>
  </outline>
</glyph>
<glyph name="guilsinglleft" format="1">
  <advance width="837.2"/>
  <unicode hex="2039"/>
  <outline>
    <contour>
      <point x="424.8" y="223.0" type="line"/>
      <point x="591.6" y="223.0" type="line"/>
      <point x="318.6" y="618.6" type="line"/>
      <point x="600.0" y="1018.0" type="line"/>
      <point x="430.2" y="1018.0" type="line"/>
      <point x="137.0" y="618.6" type="line"/>
    </contour>
  </outline>
</glyph>
<glyph name="fraction" format="1">
  <advance width="480.0"/>
  <unicode hex="2044"/>
  <outline>
    <contour>
      <point x="-439.4" y="0.0" type="line"/>
      <point x="-278.0" y="0.0" type="line"/>
      <point x="687.8" y="1536.0" type="line"/>
      <point x="528.4" y="1536.0" type="line"/>
    </contour>
  </outline>
</glyph>
<glyph name="uni2074" format="1">
  <advance width="1169.8"/>
  <unicode hex="2074"/>
  <outline>
    <contour>
      <point x="375.6" y="802.6" type="line"/>
      <point x="504.0" y="802.6" type="line"/>
      <point x="504.0" y="1003.8" type="line"/>
      <point x="633.4" y="1003.8" type="line"/>
      <point x="622.6" y="1118.0" type="line"/>
      <point x="506.4" y="1118.0" type="line"/>
      <point x="506.4" y="1654.8" type="line"/>
      <point x="362.8" y="1654.8" type="line"/>
      <point x="-28.8" y="1100.8" type="line"/>
      <point x="-28.8" y="1003.8" type="line"/>
      <point x="375.6" y="1003.8" type="line"/>
    </contour>
    <contour>
      <point x="120.2" y="1118.0" type="line"/>
      <point x="375.6" y="1475.2" type="line"/>
      <point x="375.6" y="1118.0" type="line"/>
    </contour>
  </outline>
</glyph>
<glyph name="Euro" format="1">
  <advance width="1552.0"/>
  <unicode hex="20AC"/>
  <outline>
    <contour>
      <point x="821.0" y="-27.4" type="curve" smooth="yes"/>
      <point x="969.6" y="-27.4"/>
      <point x="1081.2" y="10.4"/>
      <point x="1176.2" y="75.4" type="curve"/>
      <point x="1177.2" y="265.8" type="line"/>
      <point x="1082.2" y="192.0"/>
      <point x="980.4" y="128.6"/>
      <point x="838.2" y="128.6" type="curve" smooth="yes"/>
      <point x="573.6" y="128.6"/>
      <point x="468.8" y="312.6"/>
      <point x="437.2" y="546.8" type="curve"/>
      <point x="1016.8" y="546.8" type="line"/>
      <point x="1037.4" y="694.4" type="line"/>
      <point x="422.0" y="694.4" type="line"/>
      <point x="420.0" y="746.0" type="line" smooth="yes"/>
      <point x="418.6" y="765.6"/>
      <point x="417.6" y="789.2"/>
      <point x="418.6" y="809.4" type="curve"/>
      <point x="418.6" y="821.8" type="line" smooth="yes"/>
      <point x="418.6" y="825.8"/>
      <point x="420.0" y="830.6"/>
      <point x="421.0" y="833.6" type="curve"/>
      <point x="1051.8" y="833.6" type="line"/>
      <point x="1073.4" y="981.2" type="line"/>
      <point x="440.2" y="981.2" type="line"/>
      <point x="485.0" y="1189.2"/>
      <point x="596.2" y="1389.0"/>
      <point x="847.6" y="1389.0" type="curve" smooth="yes"/>
      <point x="995.2" y="1389.0"/>
      <point x="1097.0" y="1313.2"/>
      <point x="1162.0" y="1215.8" type="curve"/>
      <point x="1200.4" y="1418.0" type="line"/>
      <point x="1117.2" y="1496.8"/>
      <point x="1010.4" y="1544.0"/>
      <point x="855.4" y="1544.0" type="curve" smooth="yes"/>
      <point x="770.8" y="1544.0"/>
      <point x="693.6" y="1530.2"/>
      <point x="626.2" y="1502.6" type="curve" smooth="yes"/>
      <point x="420.0" y="1418.0"/>
      <point x="295.6" y="1228.6"/>
      <point x="250.8" y="981.2" type="curve"/>
      <point x="121.4" y="981.2" type="line"/>
      <point x="97.8" y="833.6" type="line"/>
      <point x="230.6" y="833.6" type="line"/>
      <point x="229.6" y="809.0"/>
      <point x="228.2" y="787.8"/>
      <point x="228.2" y="764.2" type="curve" smooth="yes"/>
      <point x="228.2" y="737.2"/>
      <point x="229.6" y="714.0"/>
      <point x="232.0" y="694.4" type="curve"/>
      <point x="122.4" y="694.4" type="line"/>
      <point x="101.2" y="546.8" type="line"/>
      <point x="245.4" y="546.8" type="line"/>
      <point x="286.2" y="218.6"/>
      <point x="453.0" y="-27.4"/>
    </contour>
  </outline>
</glyph>
<glyph name="trademark" format="1">
  <advance width="2438.2"/>
  <unicode hex="2122"/>
  <outline>
    <contour>
      <point x="892.6" y="894.8" type="line"/>
      <point x="1022.0" y="894.8" type="line"/>
      <point x="1022.0" y="1530.4" type="line"/>
      <point x="1299.0" y="894.8" type="line"/>
      <point x="1384.6" y="894.8" type="line"/>
      <point x="1677.4" y="1531.4" type="line"/>
      <point x="1677.4" y="894.8" type="line"/>
      <point x="1807.8" y="894.8" type="line"/>
      <point x="1807.8" y="1713.4" type="line"/>
      <point x="1615.8" y="1713.4" type="line"/>
      <point x="1348.2" y="1123.6" type="line"/>
      <point x="1095.8" y="1713.4" type="line"/>
      <point x="892.6" y="1713.4" type="line"/>
    </contour>
    <contour>
      <point x="362.2" y="894.8" type="line"/>
      <point x="494.6" y="894.8" type="line"/>
      <point x="494.6" y="1605.2" type="line"/>
      <point x="772.6" y="1605.2" type="line"/>
      <point x="772.6" y="1713.4" type="line"/>
      <point x="91.2" y="1713.4" type="line"/>
      <point x="91.2" y="1605.2" type="line"/>
      <point x="362.2" y="1605.2" type="line"/>
    </contour>
  </outline>
</glyph>
<glyph name="product" format="1">
  <advance width="2045.2"/>
  <unicode hex="220F"/>
  <outline>
    <contour>
      <point x="294.2" y="-429.4" type="line"/>
      <point x="481.2" y="-429.4" type="line"/>
      <point x="481.2" y="1289.6" type="line"/>
      <point x="1255.0" y="1289.6" type="line"/>
      <point x="1255.0" y="-429.4" type="line"/>
      <point x="1445.4" y="-429.4" type="line"/>
      <point x="1445.4" y="1289.6" type="line"/>
      <point x="1566.0" y="1289.6" type="line"/>
      <point x="1583.2" y="1444.6" type="line"/>
      <point x="143.6" y="1444.6" type="line"/>
      <point x="160.4" y="1289.6" type="line"/>
      <point x="294.2" y="1289.6" type="line"/>
    </contour>
  </outline>
</glyph>
<glyph name="minus" format="1">
  <advance width="1901.6"/>
  <unicode hex="2212"/>
  <outline>
    <contour>
      <point x="258.4" y="647.2" type="line"/>
      <point x="1380.6" y="647.2" type="line"/>
      <point x="1380.6" y="793.8" type="line"/>
      <point x="258.4" y="793.8" type="line"/>
    </contour>
  </outline>
</glyph>
<glyph name="radical" format="1">
  <advance width="1714.0"/>
  <unicode hex="221A"/>
  <outline>
    <contour>
      <point x="673.8" y="-199.4" type="line"/>
      <point x="818.4" y="-199.4" type="line"/>
      <point x="1316.8" y="1671.2" type="line"/>
      <point x="1178.0" y="1671.2" type="line"/>
      <point x="778.6" y="196.2" type="line"/>
      <point x="736.2" y="8.2" type="line"/>
      <point x="673.8" y="193.2" type="line"/>
      <point x="429.2" y="846.6" type="line"/>
      <point x="113.4" y="792.0" type="line"/>
      <point x="134.6" y="672.4" type="line"/>
      <point x="318.6" y="702.4" type="line"/>
    </contour>
  </outline>
</glyph>
<glyph name="infinity" format="1">
  <advance width="2248.8"/>
  <unicode hex="221E"/>
  <outline>
    <contour>
      <point x="514.8" y="307.6" type="curve" smooth="yes"/>
      <point x="557.2" y="307.6"/>
      <point x="598.0" y="314.4"/>
      <point x="636.8" y="327.2" type="curve" smooth="yes"/>
      <point x="769.2" y="373.0"/>
      <point x="862.2" y="473.4"/>
      <point x="942.4" y="577.2" type="curve"/>
      <point x="1012.8" y="487.2"/>
      <point x="1082.6" y="419.8"/>
      <point x="1150.0" y="375.0" type="curve" smooth="yes"/>
      <point x="1217.4" y="330.2"/>
      <point x="1291.2" y="307.6"/>
      <point x="1370.4" y="307.6" type="curve" smooth="yes"/>
      <point x="1422.0" y="307.6"/>
      <point x="1470.8" y="317.4"/>
      <point x="1518.0" y="335.6" type="curve" smooth="yes"/>
      <point x="1650.8" y="388.2"/>
      <point x="1756.6" y="510.2"/>
      <point x="1756.6" y="692.2" type="curve" smooth="yes"/>
      <point x="1756.6" y="746.4"/>
      <point x="1748.2" y="795.6"/>
      <point x="1730.0" y="841.4" type="curve" smooth="yes"/>
      <point x="1677.4" y="974.2"/>
      <point x="1556.8" y="1065.2"/>
      <point x="1372.8" y="1065.2" type="curve" smooth="yes"/>
      <point x="1326.6" y="1065.2"/>
      <point x="1284.8" y="1059.2"/>
      <point x="1246.4" y="1046.0" type="curve" smooth="yes"/>
      <point x="1112.6" y="1001.2"/>
      <point x="1024.0" y="899.4"/>
      <point x="944.4" y="795.6" type="curve"/>
      <point x="913.4" y="836.4"/>
      <point x="881.4" y="873.8"/>
      <point x="848.4" y="906.8" type="curve" smooth="yes"/>
      <point x="767.2" y="989.0"/>
      <point x="664.4" y="1065.2"/>
      <point x="509.4" y="1065.2" type="curve" smooth="yes"/>
      <point x="397.2" y="1065.2"/>
      <point x="303.2" y="1018.0"/>
      <point x="240.8" y="961.4" type="curve" smooth="yes"/>
      <point x="178.8" y="905.4"/>
      <point x="125.2" y="820.2"/>
      <point x="125.2" y="710.0" type="curve" smooth="yes"/>
      <point x="125.2" y="655.8"/>
      <point x="134.0" y="602.8"/>
      <point x="153.2" y="554.6" type="curve" smooth="yes"/>
      <point x="206.4" y="417.8"/>
      <point x="327.4" y="307.6"/>
    </contour>
    <contour>
      <point x="517.8" y="435.4" type="curve" smooth="yes"/>
      <point x="479.0" y="435.4"/>
      <point x="445.4" y="442.8"/>
      <point x="414.4" y="456.6" type="curve" smooth="yes"/>
      <point x="333.2" y="494.0"/>
      <point x="264.4" y="573.8"/>
      <point x="264.4" y="688.4" type="curve" smooth="yes"/>
      <point x="264.4" y="722.8"/>
      <point x="270.8" y="755.2"/>
      <point x="281.6" y="786.2" type="curve" smooth="yes"/>
      <point x="313.6" y="874.8"/>
      <point x="387.0" y="942.2"/>
      <point x="507.0" y="942.2" type="curve" smooth="yes"/>
      <point x="544.4" y="942.2"/>
      <point x="579.8" y="934.8"/>
      <point x="612.8" y="922.0" type="curve" smooth="yes"/>
      <point x="726.4" y="877.2"/>
      <point x="802.6" y="781.8"/>
      <point x="869.0" y="685.4" type="curve"/>
      <point x="821.8" y="621.0"/>
      <point x="767.8" y="556.0"/>
      <point x="707.2" y="508.8" type="curve" smooth="yes"/>
      <point x="658.0" y="470.4"/>
      <point x="598.0" y="435.4"/>
    </contour>
    <contour>
      <point x="1373.4" y="435.4" type="curve" smooth="yes"/>
      <point x="1295.2" y="435.4"/>
      <point x="1243.0" y="462.0"/>
      <point x="1193.8" y="499.4" type="curve" smooth="yes"/>
      <point x="1125.0" y="550.6"/>
      <point x="1072.8" y="614.6"/>
      <point x="1016.2" y="688.4" type="curve"/>
      <point x="1060.0" y="752.8"/>
      <point x="1112.6" y="816.8"/>
      <point x="1172.6" y="864.0" type="curve" smooth="yes"/>
      <point x="1222.8" y="903.8"/>
      <point x="1286.8" y="942.2"/>
      <point x="1368.0" y="942.2" type="curve" smooth="yes"/>
      <point x="1403.4" y="942.2"/>
      <point x="1434.4" y="935.8"/>
      <point x="1464.4" y="924.0" type="curve" smooth="yes"/>
      <point x="1541.2" y="892.0"/>
      <point x="1608.0" y="822.2"/>
      <point x="1608.0" y="716.4" type="curve" smooth="yes"/>
      <point x="1608.0" y="553.6"/>
      <point x="1534.8" y="435.4"/>
    </contour>
  </outline>
</glyph>
<glyph name="notequal" format="1">
  <advance width="1762.2"/>
  <unicode hex="2260"/>
  <outline>
    <contour>
      <point x="526.2" y="60.0" type="line"/>
      <point x="676.6" y="358.2" type="line"/>
      <point x="1302.0" y="358.2" type="line"/>
      <point x="1292.2" y="487.0" type="line"/>
      <point x="739.2" y="487.0" type="line"/>
      <point x="897.6" y="789.6" type="line"/>
      <point x="1302.0" y="789.6" type="line"/>
      <point x="1291.2" y="919.0" type="line"/>
      <point x="959.6" y="919.0" type="line"/>
      <point x="1095.4" y="1192.6" type="line"/>
      <point x="962.0" y="1212.2" type="line"/>
      <point x="816.4" y="919.0" type="line"/>
      <point x="208.8" y="919.0" type="line"/>
      <point x="219.2" y="789.6" type="line"/>
      <point x="755.4" y="789.6" type="line"/>
      <point x="598.4" y="487.0" type="line"/>
      <point x="209.8" y="487.0" type="line"/>
      <point x="219.2" y="358.2" type="line"/>
      <point x="532.6" y="358.2" type="line"/>
      <point x="396.2" y="79.2" type="line"/>
    </contour>
  </outline>
</glyph>
<glyph name="lessequal" format="1">
  <advance width="1762.2"/>
  <unicode hex="2264"/>
  <outline>
    <contour>
      <point x="1263.6" y="233.2" type="line"/>
      <point x="1263.6" y="383.8" type="line"/>
      <point x="435.6" y="761.2" type="line"/>
      <point x="1263.6" y="1156.2" type="line"/>
      <point x="1263.6" y="1306.2" type="line"/>
      <point x="248.6" y="801.0" type="line"/>
      <point x="248.6" y="714.4" type="line"/>
    </contour>
    <contour>
      <point x="210.2" y="11.4" type="line"/>
      <point x="1294.6" y="11.4" type="line"/>
      <point x="1294.6" y="142.2" type="line"/>
      <point x="210.2" y="142.2" type="line"/>
    </contour>
  </outline>
</glyph>
<glyph name="greaterequal" format="1">
  <advance width="1760.8"/>
  <unicode hex="2265"/>
  <outline>
    <contour>
      <point x="243.2" y="235.2" type="line"/>
      <point x="1270.0" y="716.4" type="line"/>
      <point x="1270.0" y="802.0" type="line"/>
      <point x="247.2" y="1308.2" type="line"/>
      <point x="247.2" y="1158.6" type="line"/>
      <point x="1079.6" y="758.2" type="line"/>
      <point x="243.2" y="386.2" type="line"/>
    </contour>
    <contour>
      <point x="210.2" y="11.4" type="line"/>
      <point x="1290.6" y="11.4" type="line"/>
      <point x="1290.6" y="142.2" type="line"/>
      <point x="210.2" y="142.2" type="line"/>
    </contour>
  </outline>
</glyph>
<glyph name="uniFB01" format="1">
  <advance width="1571.8"/>
  <unicode hex="FB01"/>
  <outline>
    <contour>
      <point x="274.0" y="0.0" type="line"/>
      <point x="450.2" y="0.0" type="line"/>
      <point x="450.2" y="983.0" type="line"/>
      <point x="940.2" y="983.0" type="line"/>
      <point x="940.2" y="0.0" type="line"/>
      <point x="1116.8" y="0.0" type="line"/>
      <point x="1116.8" y="1097.6" type="line"/>
      <point x="450.2" y="1097.6" type="line"/>
      <point x="451.2" y="1243.2" type="line" smooth="yes"/>
      <point x="451.2" y="1387.4"/>
      <point x="479.2" y="1475.0"/>
      <point x="623.4" y="1475.0" type="curve" smooth="yes"/>
      <point x="662.8" y="1475.0"/>
      <point x="713.4" y="1469.6"/>
      <point x="741.0" y="1458.8" type="curve"/>
      <point x="739.0" y="1597.4" type="line"/>
      <point x="691.8" y="1607.8"/>
      <point x="652.0" y="1619.6"/>
      <point x="593.4" y="1619.6" type="curve" smooth="yes"/>
      <point x="354.8" y="1619.6"/>
      <point x="278.6" y="1452.4"/>
      <point x="275.6" y="1217.2" type="curve" smooth="yes"/>
      <point x="274.0" y="1097.6" type="line"/>
      <point x="58.6" y="1097.6" type="line"/>
      <point x="58.6" y="983.0" type="line"/>
      <point x="274.0" y="983.0" type="line"/>
    </contour>
    <contour>
      <point x="948.6" y="1398.2" type="line"/>
      <point x="1112.4" y="1398.2" type="line"/>
      <point x="1112.4" y="1564.0" type="line"/>
      <point x="948.6" y="1564.0" type="line"/>
    </contour>
  </outline>
</glyph>
<glyph name="a.alt" format="1">
  <advance width="1590.2"/>
  <outline>
    <contour>
      <point x="612.2" y="-29.8" type="curve" smooth="yes"/>
      <point x="742.6" y="-29.8"/>
      <point x="910.8" y="8.2"/>
      <point x="1010.2" y="172.0" type="curve"/>
      <point x="1039.2" y="43.6"/>
      <point x="1165.2" y="-9.6"/>
      <point x="1258.2" y="-9.6" type="curve"/>
      <point x="1294.6" y="143.4" type="line"/>
      <point x="1239.0" y="143.4"/>
      <point x="1160.8" y="176.0"/>
      <point x="1160.8" y="300.4" type="curve" smooth="yes"/>
      <point x="1160.8" y="549.8" type="line" smooth="yes"/>
      <point x="1160.8" y="987.6"/>
      <point x="944.4" y="1119.6"/>
      <point x="677.2" y="1119.6" type="curve" smooth="yes"/>
      <point x="324.4" y="1119.6"/>
      <point x="114.8" y="897.6"/>
      <point x="114.8" y="523.2" type="curve" smooth="yes"/>
      <point x="114.8" y="200.0"/>
      <point x="321.0" y="-29.8"/>
    </contour>
    <contour>
      <point x="632.4" y="119.8" type="curve" smooth="yes"/>
      <point x="434.6" y="119.8"/>
      <point x="293.4" y="292.0"/>
      <point x="293.4" y="533.6" type="curve" smooth="yes"/>
      <point x="293.4" y="809.0"/>
      <point x="438.0" y="971.4"/>
      <point x="681.0" y="971.4" type="curve" smooth="yes"/>
      <point x="874.4" y="971.4"/>
      <point x="985.2" y="865.6"/>
      <point x="985.2" y="555.2" type="curve" smooth="yes"/>
      <point x="985.2" y="285.6"/>
      <point x="906.4" y="119.8"/>
    </contour>
  </outline>
</glyph>
<glyph name="e.alt" format="1">
  <advance width="1399.8"/>
  <outline>
    <contour>
      <point x="651.8" y="-25.0" type="curve" smooth="yes"/>
      <point x="832.8" y="-25.0"/>
      <point x="979.4" y="44.8"/>
      <point x="1105.8" y="177.2" type="curve"/>
      <point x="1016.8" y="290.8" type="line"/>
      <point x="937.6" y="195.4"/>
      <point x="808.2" y="127.0"/>
      <point x="659.6" y="127.0" type="curve" smooth="yes"/>
      <point x="516.4" y="127.0"/>
      <point x="379.2" y="200.8"/>
      <point x="331.4" y="392.6" type="curve"/>
      <point x="722.6" y="450.2"/>
      <point x="1034.0" y="536.8"/>
      <point x="1034.0" y="798.6" type="curve" smooth="yes"/>
      <point x="1034.0" y="977.2"/>
      <point x="886.8" y="1125.2"/>
      <point x="655.2" y="1125.2" type="curve" smooth="yes"/>
      <point x="310.2" y="1125.2"/>
      <point x="122.8" y="856.6"/>
      <point x="122.8" y="547.6" type="curve" smooth="yes"/>
      <point x="122.8" y="183.6"/>
      <point x="369.4" y="-25.0"/>
    </contour>
    <contour>
      <point x="318.2" y="519.6" type="curve"/>
      <point x="316.2" y="537.8"/>
      <point x="315.2" y="555.0"/>
      <point x="315.2" y="572.2" type="curve" smooth="yes"/>
      <point x="315.2" y="781.8"/>
      <point x="441.6" y="972.2"/>
      <point x="656.6" y="972.2" type="curve" smooth="yes"/>
      <point x="786.0" y="972.2"/>
      <point x="859.8" y="900.4"/>
      <point x="859.8" y="803.0" type="curve" smooth="yes"/>
      <point x="859.8" y="630.8"/>
      <point x="624.2" y="566.8"/>
    </contour>
  </outline>
</glyph>
<glyph name="k.alt" format="1">
  <advance width="1411.2"/>
  <outline>
    <contour>
      <point x="232.4" y="0.0" type="line"/>
      <point x="366.2" y="0.0" type="line"/>
      <point x="473.0" y="159.0"/>
      <point x="580.4" y="317.0"/>
      <point x="687.6" y="475.4" type="curve"/>
      <point x="988.6" y="0.0" type="line"/>
      <point x="1182.0" y="0.0" type="line"/>
      <point x="785.4" y="620.0" type="line"/>
      <point x="893.2" y="779.4"/>
      <point x="1001.4" y="938.2"/>
      <point x="1109.2" y="1097.6" type="curve"/>
      <point x="917.8" y="1097.6" type="line"/>
      <point x="408.6" y="329.6" type="line"/>
      <point x="408.6" y="1632.0" type="line"/>
      <point x="232.4" y="1632.0" type="line"/>
    </contour>
  </outline>
</glyph>
<glyph name="n.alt" format="1">
  <advance width="1647.4"/>
  <outline>
    <contour>
      <point x="1208.8" y="-31.2" type="curve"/>
      <point x="1246.8" y="103.6" type="line"/>
      <point x="1166.6" y="119.8"/>
      <point x="1154.8" y="146.8"/>
      <point x="1154.8" y="267.4" type="curve" smooth="yes"/>
      <point x="1154.8" y="283.2" type="line"/>
      <point x="1157.2" y="601.0" type="line"/>
      <point x="1157.2" y="611.8" type="line" smooth="yes"/>
      <point x="1157.2" y="922.2"/>
      <point x="1063.2" y="1118.2"/>
      <point x="749.8" y="1118.2" type="curve" smooth="yes"/>
      <point x="569.8" y="1118.2"/>
      <point x="481.2" y="1050.8"/>
      <point x="403.0" y="939.6" type="curve"/>
      <point x="379.4" y="1091.6" type="line"/>
      <point x="200.8" y="1091.6" type="line"/>
      <point x="207.6" y="1039.4"/>
      <point x="228.8" y="833.2"/>
      <point x="228.8" y="742.2" type="curve" smooth="yes"/>
      <point x="228.8" y="-5.6" type="line"/>
      <point x="405.0" y="-5.6" type="line"/>
      <point x="405.0" y="692.0" type="line" smooth="yes"/>
      <point x="405.0" y="849.0"/>
      <point x="555.0" y="969.0"/>
      <point x="719.8" y="969.0" type="curve" smooth="yes"/>
      <point x="945.6" y="969.0"/>
      <point x="980.6" y="839.6"/>
      <point x="980.6" y="620.2" type="curve" smooth="yes"/>
      <point x="980.6" y="606.0" type="line"/>
      <point x="978.6" y="278.2" type="line"/>
      <point x="978.6" y="259.6" type="line" smooth="yes"/>
      <point x="978.6" y="60.8"/>
      <point x="1007.6" y="-7.6"/>
    </contour>
  </outline>
</glyph>
<glyph name="s.alt" format="1">
  <advance width="1305.8"/>
  <outline>
    <contour>
      <point x="617.2" y="-34.0" type="curve" smooth="yes"/>
      <point x="817.0" y="-34.0"/>
      <point x="991.6" y="49.2"/>
      <point x="991.6" y="297.6" type="curve" smooth="yes"/>
      <point x="991.6" y="520.0"/>
      <point x="786.0" y="579.0"/>
      <point x="614.8" y="631.6" type="curve" smooth="yes"/>
      <point x="513.4" y="662.6"/>
      <point x="331.8" y="692.6"/>
      <point x="331.8" y="822.0" type="curve" smooth="yes"/>
      <point x="331.8" y="936.6"/>
      <point x="435.2" y="974.6"/>
      <point x="554.2" y="974.6" type="curve" smooth="yes"/>
      <point x="674.8" y="974.6"/>
      <point x="810.0" y="935.2"/>
      <point x="868.6" y="896.8" type="curve"/>
      <point x="918.8" y="1027.2" type="line"/>
      <point x="814.0" y="1090.6"/>
      <point x="681.2" y="1123.6"/>
      <point x="555.2" y="1123.6" type="curve" smooth="yes"/>
      <point x="341.2" y="1123.6"/>
      <point x="148.4" y="1028.2"/>
      <point x="148.4" y="818.6" type="curve" smooth="yes"/>
      <point x="148.4" y="603.6"/>
      <point x="329.4" y="541.6"/>
      <point x="506.0" y="489.0" type="curve" smooth="yes"/>
      <point x="620.6" y="455.0"/>
      <point x="817.0" y="426.0"/>
      <point x="817.0" y="284.8" type="curve" smooth="yes"/>
      <point x="817.0" y="154.0"/>
      <point x="715.6" y="113.6"/>
      <point x="592.6" y="113.6" type="curve" smooth="yes"/>
      <point x="450.0" y="113.6"/>
      <point x="279.2" y="175.6"/>
      <point x="199.0" y="236.6" type="curve"/>
      <point x="148.4" y="90.0" type="line"/>
      <point x="262.0" y="20.2"/>
      <point x="450.4" y="-34.0"/>
    </contour>
  </outline>
</glyph>
